<svg width="69" height="44" viewBox="0 0 69 44" fill="none" xmlns="http://www.w3.org/2000/svg">
<path d="M0.00012207 3.34647C0.00012207 1.49827 1.49958 0 3.34925 0H65.6431C67.4927 0 68.9922 1.49826 68.9922 3.34647V40.4922C68.9922 42.3404 67.4927 43.8387 65.6431 43.8387H3.34925C1.49958 43.8387 0.00012207 42.3404 0.00012207 40.4922V3.34647Z" fill="#F2F2F2"/>
<path d="M0 10.0613H68.9921V18.6853H0V10.0613Z" fill="#616161"/>
<path d="M32.3406 24.4348H58.9313V26.5908H32.3406V24.4348Z" fill="#DCDCDC"/>
<path d="M32.3406 28.0278H51.7446V30.9025H32.3406V28.0278Z" fill="#DCDCDC"/>
<path fill-rule="evenodd" clip-rule="evenodd" d="M19.2586 24.6412C19.0409 24.5065 18.787 24.4348 18.5274 24.4348H8.5284C7.78751 24.4348 7.18689 25.0068 7.18689 25.7124V31.7812C7.18689 32.4868 7.78751 33.0588 8.5284 33.0588H20.9374C21.6783 33.0588 22.2789 32.4868 22.2789 31.7812V27.2043C22.2789 26.7719 22.0492 26.3688 21.6685 26.1331L19.2586 24.6412Z" fill="#CDCDCD"/>
<path d="M7.18689 27.3093H12.2176V28.7467H7.18689V27.3093Z" fill="#828282"/>
<path d="M7.18689 29.4653H12.2176V30.9027H7.18689V29.4653Z" fill="#828282"/>
<path d="M13.655 25.8721L13.655 31.6214L12.2177 31.6214L12.2177 25.8721L13.655 25.8721Z" fill="#828282"/>
<path d="M22.2788 27.3093H17.2481V28.7467H22.2788V27.3093Z" fill="#828282"/>
<path d="M22.2788 29.4653H17.2481V30.9027H22.2788V29.4653Z" fill="#828282"/>
<path d="M15.8109 25.8721L15.8109 31.6214L17.2482 31.6214L17.2482 25.8721L15.8109 25.8721Z" fill="#828282"/>
</svg>
