<svg width="65" height="64" viewBox="0 0 65 64" fill="none" xmlns="http://www.w3.org/2000/svg">
<path d="M7.79547 23.387H15.1615V55.0609H7.79547V23.387Z" fill="#EDEDED"/>
<path d="M7.05884 22.2825H15.8981V23.3874H7.05884V22.2825Z" fill="#F8F8F8"/>
<path d="M6.32196 21.7297C6.32196 21.4246 6.5693 21.1772 6.87441 21.1772H16.082C16.3871 21.1772 16.6344 21.4246 16.6344 21.7297C16.6344 22.0348 16.3871 22.2822 16.082 22.2822H6.87441C6.5693 22.2822 6.32196 22.0348 6.32196 21.7297Z" fill="#D5D5D5"/>
<path d="M7.05884 56.1658H15.8981V55.0609H7.05884V56.1658Z" fill="#F8F8F8"/>
<path d="M6.3222 56.7181C6.3222 57.0232 6.56955 57.2705 6.87466 57.2705H16.0822C16.3873 57.2705 16.6347 57.0232 16.6347 56.7181C16.6347 56.4129 16.3873 56.1656 16.0822 56.1656H6.87466C6.56955 56.1656 6.3222 56.4129 6.3222 56.7181Z" fill="#D5D5D5"/>
<path d="M9.63684 26.1491C9.63684 25.844 9.88418 25.5967 10.1893 25.5967C10.4944 25.5967 10.7417 25.844 10.7417 26.1491V52.2986C10.7417 52.6037 10.4944 52.851 10.1893 52.851C9.88418 52.851 9.63684 52.6037 9.63684 52.2986V26.1491Z" fill="#CFCFCF"/>
<path d="M12.2153 26.1491C12.2153 25.844 12.4626 25.5967 12.7677 25.5967C13.0728 25.5967 13.3202 25.844 13.3202 26.1491V52.2986C13.3202 52.6037 13.0728 52.851 12.7677 52.851C12.4626 52.851 12.2153 52.6037 12.2153 52.2986V26.1491Z" fill="#CFCFCF"/>
<path d="M21.7905 23.387H29.1565V55.0609H21.7905V23.387Z" fill="#EDEDED"/>
<path d="M21.0539 22.2825H29.8931V23.3874H21.0539V22.2825Z" fill="#F8F8F8"/>
<path d="M20.3174 21.7297C20.3174 21.4246 20.5647 21.1772 20.8698 21.1772H30.0774C30.3825 21.1772 30.6298 21.4246 30.6298 21.7297C30.6298 22.0348 30.3825 22.2822 30.0774 22.2822H20.8698C20.5647 22.2822 20.3174 22.0348 20.3174 21.7297Z" fill="#D5D5D5"/>
<path d="M21.0539 56.1658H29.8931V55.0609H21.0539V56.1658Z" fill="#F8F8F8"/>
<path d="M20.3173 56.7181C20.3173 57.0232 20.5646 57.2705 20.8697 57.2705H30.0773C30.3824 57.2705 30.6297 57.0232 30.6297 56.7181C30.6297 56.4129 30.3824 56.1656 30.0773 56.1656H20.8697C20.5646 56.1656 20.3173 56.4129 20.3173 56.7181Z" fill="#D5D5D5"/>
<path d="M23.6319 26.1491C23.6319 25.844 23.8792 25.5967 24.1844 25.5967C24.4895 25.5967 24.7368 25.844 24.7368 26.1491V52.2986C24.7368 52.6037 24.4895 52.851 24.1844 52.851C23.8792 52.851 23.6319 52.6037 23.6319 52.2986V26.1491Z" fill="#CFCFCF"/>
<path d="M26.2103 26.1491C26.2103 25.844 26.4577 25.5967 26.7628 25.5967C27.0679 25.5967 27.3152 25.844 27.3152 26.1491V52.2986C27.3152 52.6037 27.0679 52.851 26.7628 52.851C26.4577 52.851 26.2103 52.6037 26.2103 52.2986V26.1491Z" fill="#CFCFCF"/>
<path d="M35.7862 23.387H43.1522V55.0609H35.7862V23.387Z" fill="#EDEDED"/>
<path d="M35.0496 22.2825H43.8889V23.3874H35.0496V22.2825Z" fill="#F8F8F8"/>
<path d="M34.3129 21.7297C34.3129 21.4246 34.5602 21.1772 34.8653 21.1772H44.0729C44.378 21.1772 44.6253 21.4246 44.6253 21.7297C44.6253 22.0348 44.378 22.2822 44.0729 22.2822H34.8653C34.5602 22.2822 34.3129 22.0348 34.3129 21.7297Z" fill="#D5D5D5"/>
<path d="M35.0496 56.1658H43.8889V55.0609H35.0496V56.1658Z" fill="#F8F8F8"/>
<path d="M34.313 56.7181C34.313 57.0232 34.5604 57.2705 34.8655 57.2705H44.0731C44.3782 57.2705 44.6255 57.0232 44.6255 56.7181C44.6255 56.4129 44.3782 56.1656 44.0731 56.1656H34.8655C34.5604 56.1656 34.313 56.4129 34.313 56.7181Z" fill="#D5D5D5"/>
<path d="M37.6276 26.1491C37.6276 25.844 37.875 25.5967 38.1801 25.5967C38.4852 25.5967 38.7325 25.844 38.7325 26.1491V52.2986C38.7325 52.6037 38.4852 52.851 38.1801 52.851C37.875 52.851 37.6276 52.6037 37.6276 52.2986V26.1491Z" fill="#CFCFCF"/>
<path d="M40.206 26.1491C40.206 25.844 40.4533 25.5967 40.7584 25.5967C41.0636 25.5967 41.3109 25.844 41.3109 26.1491V52.2986C41.3109 52.6037 41.0636 52.851 40.7584 52.851C40.4533 52.851 40.206 52.6037 40.206 52.2986V26.1491Z" fill="#CFCFCF"/>
<path d="M49.7815 23.387H57.1475V55.0609H49.7815V23.387Z" fill="#EDEDED"/>
<path d="M49.0449 22.2825H57.8841V23.3874H49.0449V22.2825Z" fill="#F8F8F8"/>
<path d="M48.3083 21.7297C48.3083 21.4246 48.5557 21.1772 48.8608 21.1772H58.0684C58.3735 21.1772 58.6208 21.4246 58.6208 21.7297C58.6208 22.0348 58.3735 22.2822 58.0684 22.2822H48.8608C48.5557 22.2822 48.3083 22.0348 48.3083 21.7297Z" fill="#D5D5D5"/>
<path d="M49.0449 56.1658H57.8841V55.0609H49.0449V56.1658Z" fill="#F8F8F8"/>
<path d="M48.3083 56.7181C48.3083 57.0232 48.5556 57.2705 48.8607 57.2705H58.0683C58.3734 57.2705 58.6207 57.0232 58.6207 56.7181C58.6207 56.4129 58.3734 56.1656 58.0683 56.1656H48.8607C48.5556 56.1656 48.3083 56.4129 48.3083 56.7181Z" fill="#D5D5D5"/>
<path d="M51.6229 26.1491C51.6229 25.844 51.8702 25.5967 52.1753 25.5967C52.4804 25.5967 52.7278 25.844 52.7278 26.1491V52.2986C52.7278 52.6037 52.4804 52.851 52.1753 52.851C51.8702 52.851 51.6229 52.6037 51.6229 52.2986V26.1491Z" fill="#CFCFCF"/>
<path d="M54.2013 26.1491C54.2013 25.844 54.4486 25.5967 54.7537 25.5967C55.0589 25.5967 55.3062 25.844 55.3062 26.1491V52.2986C55.3062 52.6037 55.0589 52.851 54.7537 52.851C54.4486 52.851 54.2013 52.6037 54.2013 52.2986V26.1491Z" fill="#CFCFCF"/>
<path d="M0.0609131 19.1519H64.8821V21.3617H0.0609131V19.1519Z" fill="#FBFBFB"/>
<path d="M3.00732 57.271H61.9357V59.4808H3.00732V57.271Z" fill="#FBFBFB"/>
<path d="M0.0609131 59.4807H64.8821V63.532H0.0609131V59.4807Z" fill="#EEEEEE"/>
<path d="M0.0609131 16.9204L32.4715 0L64.8821 16.9204V19.1517H0.0609131V16.9204Z" fill="#F0F0F0"/>
<path d="M16.6348 13.7148L32.4718 4.60376L48.3088 13.7148V14.9162H16.6348V13.7148Z" fill="#DADADA"/>
<path d="M35.0494 10.4968C35.0494 11.9207 33.8952 13.0749 32.4713 13.0749C31.0474 13.0749 29.8932 11.9207 29.8932 10.4968C29.8932 9.07296 31.0474 7.9187 32.4713 7.9187C33.8952 7.9187 35.0494 9.07296 35.0494 10.4968Z" fill="#F2F2F2"/>
</svg>
