<svg width="57" height="55" viewBox="0 0 57 55" fill="none" xmlns="http://www.w3.org/2000/svg">
<path d="M0 5.0005C0 2.23907 2.23858 0.000488281 5.00002 0.000488281H50.0002C52.7616 0.000488281 55.0002 2.23907 55.0002 5.0005V50.0006C55.0002 52.7621 52.7616 55.0007 50.0002 55.0007H5.00001C2.23858 55.0007 0 52.7621 0 50.0006V5.0005Z" fill="#F9F9F9"/>
<path d="M7.85681 0H8.97926V55.0002H7.85681V0Z" fill="#EBEBEB"/>
<path d="M14.5918 0H15.7142V55.0002H14.5918V0Z" fill="#EBEBEB"/>
<path d="M21.3264 0H22.4489V55.0002H21.3264V0Z" fill="#EBEBEB"/>
<path d="M28.0614 0H29.1839V55.0002H28.0614V0Z" fill="#EBEBEB"/>
<path d="M33.6743 0H34.7968V55.0002H33.6743V0Z" fill="#EBEBEB"/>
<path d="M40.4082 0H41.5307V55.0002H40.4082V0Z" fill="#EBEBEB"/>
<path d="M47.1428 0H48.2653V55.0002H47.1428V0Z" fill="#EBEBEB"/>
<path d="M55.0005 11.2244L55.0005 12.3468L0.000320377 12.3468L0.000320435 11.2244L55.0005 11.2244Z" fill="#EBEBEB"/>
<path d="M55.0005 4.48975L55.0005 5.6122L0.000320377 5.6122L0.000320435 4.48974L55.0005 4.48975Z" fill="#EBEBEB"/>
<path d="M55.0005 17.9592L55.0005 19.0817L0.000320377 19.0817L0.000320435 17.9592L55.0005 17.9592Z" fill="#EBEBEB"/>
<path d="M55.0005 24.6938L55.0005 25.8163L0.000320377 25.8163L0.000320435 24.6938L55.0005 24.6938Z" fill="#EBEBEB"/>
<path d="M55.0005 30.3064L55.0005 31.4289L0.000320377 31.4288L0.000320435 30.3064L55.0005 30.3064Z" fill="#EBEBEB"/>
<path d="M55.0005 37.041L55.0005 38.1635L0.000320377 38.1635L0.000320435 37.041L55.0005 37.041Z" fill="#EBEBEB"/>
<path d="M55.0005 43.7756L55.0005 44.8981L0.000320377 44.8981L0.000320435 43.7756L55.0005 43.7756Z" fill="#EBEBEB"/>
<path d="M55.0005 50.5103L55.0005 51.6327L0.000320377 51.6327L0.000320435 50.5103L55.0005 50.5103Z" fill="#EBEBEB"/>
<path fill-rule="evenodd" clip-rule="evenodd" d="M53.6624 10.1954L55.0006 7.051L54.2972 6.73462L52.948 9.90492L48.7185 22.1585L45.0657 33.8194L43.8169 38.9546L37.7238 23.1106L35.5218 18.5832L30.161 25.79L28.0337 28.4816L25.1955 23.0108L19.8804 18.8077L16.6092 21.9604L12.5185 24.1632L9.02629 30.9843L6.87526 24.9534L1.12292 39.1038L1.83137 39.4081L6.82856 27.1154L8.90056 32.9247L13.0866 24.7483L17.0581 22.6097L19.9294 19.8423L24.596 23.5326L27.9004 29.902L30.764 26.2788L35.3849 20.0667L37.022 23.4328L43.9819 41.5306L45.8044 34.0363L49.4459 22.4116L53.6624 10.1954Z" fill="#074DFF"/>
<path fill-rule="evenodd" clip-rule="evenodd" d="M48.4127 15.7144H51.0493L53.0505 22.1331L53.0523 22.1386L56.1231 31.4652L55.3915 31.6927L52.318 22.3579L50.4795 16.4609H48.5073L44.0819 17.5362L37.0112 27.1942L27.1414 32.837L24.9376 34.0053H22.2589L19.8874 32.9415L12.234 38.2028L10.7977 39.8314L8.4307 36.6944L7.03016 35.6356L1.69992 41.5308L1.12292 41.0379L6.93071 34.6147L8.98681 36.1689L10.8446 38.6311L11.7127 37.6467L19.8062 32.0828L22.4276 33.2587H24.7417L26.7627 32.1874L36.4804 26.6315L43.6204 16.8788L48.4127 15.7144Z" fill="#35C465"/>
</svg>
