<svg width="36" height="65" viewBox="0 0 36 65" fill="none" xmlns="http://www.w3.org/2000/svg">
<path d="M0 4.04244C0 1.80986 1.77176 0 3.95733 0H31.376C33.5616 0 35.3333 1.80986 35.3333 4.04244V60.9253C35.3333 63.1579 33.5616 64.9677 31.376 64.9677H3.95733C1.77176 64.9677 0 63.1579 0 60.9253V4.04244Z" fill="#F0F0F0"/>
<path d="M2.27954 5.9982C2.27954 5.2034 2.90018 4.55908 3.66577 4.55908H31.6675C32.4331 4.55908 33.0537 5.2034 33.0537 5.9982V60.1092C33.0537 60.904 32.4331 61.5483 31.6675 61.5483H3.66577C2.90017 61.5483 2.27954 60.904 2.27954 60.1092V5.9982Z" fill="#575757"/>
<path d="M11.3979 5.12911C11.3979 4.18488 12.0662 3.41943 12.8905 3.41943H22.443C23.2673 3.41943 23.9356 4.18488 23.9356 5.12911C23.9356 6.07334 23.2673 6.83879 22.443 6.83879H12.8905C12.0662 6.83879 11.3979 6.07334 11.3979 5.12911Z" fill="#F0F0F0"/>
</svg>
