<svg width="20" height="20" viewBox="0 0 20 20" fill="none" xmlns="http://www.w3.org/2000/svg">
<path d="M9.33333 0C8.78104 0 8.33333 0.447715 8.33333 1V7.33333C8.33333 7.88562 8.78104 8.33333 9.33333 8.33333H19C19.5523 8.33333 20 7.88562 20 7.33333V1C20 0.447715 19.5523 0 19 0H9.33333Z" fill="white"/>
<path d="M1 11.6667C0.447715 11.6667 0 12.1144 0 12.6667V19C0 19.5523 0.447716 20 1 20H10.6667C11.219 20 11.6667 19.5523 11.6667 19V12.6667C11.6667 12.1144 11.219 11.6667 10.6667 11.6667H1Z" fill="white"/>
<path d="M14.1667 12.6667C14.1667 12.1144 14.6144 11.6667 15.1667 11.6667H19C19.5523 11.6667 20 12.1144 20 12.6667V19C20 19.5523 19.5523 20 19 20H15.1667C14.6144 20 14.1667 19.5523 14.1667 19V12.6667Z" fill="white"/>
<path d="M1 0C0.447715 0 0 0.447715 0 1V7.33333C0 7.88562 0.447716 8.33333 1 8.33333H4.83333C5.38562 8.33333 5.83333 7.88562 5.83333 7.33333V1C5.83333 0.447715 5.38562 0 4.83333 0H1Z" fill="white"/>
</svg>
