<svg xmlns="http://www.w3.org/2000/svg" width="20.333" height="14.233" viewBox="0 0 20.333 14.233"><defs><style>.a{fill:#2dccd3;}</style></defs><path class="a" d="M3.05,38.1a2.033,2.033,0,1,0-2.033-2.033A2.035,2.035,0,0,0,3.05,38.1Zm14.233,0a2.033,2.033,0,1,0-2.033-2.033A2.035,2.035,0,0,0,17.283,38.1ZM18.3,39.117H16.267a2.027,2.027,0,0,0-1.433.591,4.647,4.647,0,0,1,2.386,3.476h2.1a1.016,1.016,0,0,0,1.017-1.017V41.15A2.035,2.035,0,0,0,18.3,39.117Zm-8.133,0a3.558,3.558,0,1,0-3.558-3.558A3.557,3.557,0,0,0,10.167,39.117Zm2.44,1.017h-.264a4.913,4.913,0,0,1-4.353,0H7.727a3.661,3.661,0,0,0-3.66,3.66v.915a1.525,1.525,0,0,0,1.525,1.525h9.15a1.525,1.525,0,0,0,1.525-1.525v-.915A3.661,3.661,0,0,0,12.607,40.133ZM5.5,39.708a2.027,2.027,0,0,0-1.433-.591H2.033A2.035,2.035,0,0,0,0,41.15v1.017a1.016,1.016,0,0,0,1.017,1.017H3.11A4.659,4.659,0,0,1,5.5,39.708Z" transform="translate(0 -32)"/></svg>