<svg xmlns="http://www.w3.org/2000/svg" width="16.463" height="12.863" viewBox="0 0 16.463 12.863"><defs><style>.a{fill:#2dccd3;}</style></defs><path class="a" d="M0,59.578v-.514a.772.772,0,0,1,.772-.772H12.347V56.749a.772.772,0,0,1,1.317-.546l2.572,2.572a.772.772,0,0,1,0,1.091l-2.572,2.572a.772.772,0,0,1-1.317-.546V60.35H.772A.772.772,0,0,1,0,59.578Zm15.691,4.887H4.116V62.922A.772.772,0,0,0,2.8,62.376L.226,64.949a.772.772,0,0,0,0,1.091L2.8,68.612a.772.772,0,0,0,1.317-.546V66.523H15.691a.772.772,0,0,0,.772-.772v-.514A.772.772,0,0,0,15.691,64.465Z" transform="translate(0 -55.976)"/></svg>