<svg xmlns="http://www.w3.org/2000/svg" width="13.086" height="13.086" viewBox="0 0 13.086 13.086"><defs><style>.a{fill:#2dccd3;}</style></defs><path class="a" d="M12.619,35.739H.467A.467.467,0,0,0,0,36.206v.935a.467.467,0,0,0,.467.467H12.619a.467.467,0,0,0,.467-.467v-.935A.467.467,0,0,0,12.619,35.739Zm0,7.478H.467A.467.467,0,0,0,0,43.684v.935a.467.467,0,0,0,.467.467H12.619a.467.467,0,0,0,.467-.467v-.935A.467.467,0,0,0,12.619,43.217ZM3.158,33.869H9.929a.353.353,0,0,0,.353-.353V32.353A.353.353,0,0,0,9.929,32H3.158a.353.353,0,0,0-.353.353v1.163A.353.353,0,0,0,3.158,33.869Zm6.771,7.478a.353.353,0,0,0,.353-.353V39.831a.353.353,0,0,0-.353-.353H3.158a.353.353,0,0,0-.353.353v1.163a.353.353,0,0,0,.353.353Z" transform="translate(0 -32)"/></svg>