<svg xmlns="http://www.w3.org/2000/svg" width="20.15" height="17.734" viewBox="0 0 20.15 17.734">
  <g id="Groupe_289" data-name="Groupe 289" transform="translate(-776.677 -2150)">
    <path id="Tracé_376" data-name="Tracé 376" d="M8.482,14.419,10.1,12.466a.136.136,0,0,0-.026-.205c-.026-.026-.051-.026-.1-.026H2.519a.166.166,0,0,1-.154-.154V5.628a.166.166,0,0,1,.154-.154h5.14a.28.28,0,0,0,.232-.1L12.183.231a.136.136,0,0,0-.026-.205C12.157,0,12.106,0,12.08,0H9.921a.549.549,0,0,0-.437.205L7.145,3.033a.165.165,0,0,1-.128.051H.874A.866.866,0,0,0,0,3.958v9.818a.883.883,0,0,0,.874.873H8.045a.505.505,0,0,0,.437-.231" transform="translate(776.677 2150)" fill="#40bbc9"/>
    <path id="Tracé_377" data-name="Tracé 377" d="M30.761,7.55H23.59a.549.549,0,0,0-.437.205L21.534,9.709a.136.136,0,0,0,.026.205.093.093,0,0,0,.077.026H29.09a.166.166,0,0,1,.154.154v6.451a.148.148,0,0,1-.154.154H23.95a.279.279,0,0,0-.231.1l-4.267,5.166a.136.136,0,0,0,.026.205c.026.026.051.026.1.026H21.74a.643.643,0,0,0,.462-.206l2.365-2.827c0-.051.026-.051.077-.051h6.117a.866.866,0,0,0,.874-.873V8.424a.866.866,0,0,0-.874-.874" transform="translate(765.193 2145.534)" fill="#00253e"/>
  </g>
</svg>
