<svg xmlns="http://www.w3.org/2000/svg" width="306" height="160.808" viewBox="0 0 306 160.808">
  <g id="Groupe_310" data-name="Groupe 310" transform="translate(-178.679 -814.313)">
    <g id="Groupe_309" data-name="Groupe 309" transform="translate(195.112 967.041)">
      <path id="Tracé_394" data-name="Tracé 394" d="M205.108,1057.622a.343.343,0,0,1-.236-.089.288.288,0,0,1-.1-.225.3.3,0,0,1,.1-.236.342.342,0,0,1,.236-.089h5.33a.358.358,0,0,1,.247.089.3.3,0,0,1,.1.236.282.282,0,0,1-.1.23.371.371,0,0,1-.247.084Zm2.67,7.215a.35.35,0,0,1-.258-.1.323.323,0,0,1-.1-.236v-7.148h.707v7.148a.324.324,0,0,1-.1.236A.336.336,0,0,1,207.778,1064.838Z" transform="translate(-204.771 -1056.87)"/>
      <path id="Tracé_395" data-name="Tracé 395" d="M222.84,1056.983a.342.342,0,0,1,.241.1.327.327,0,0,1,.106.247v7.159a.368.368,0,0,1-.118.247.341.341,0,0,1-.241.1.328.328,0,0,1-.258-.1.358.358,0,0,1-.089-.247v-7.159a.336.336,0,0,1,.1-.247A.349.349,0,0,1,222.84,1056.983Zm-.056,3.512h5.33l-.011.662h-5.364Zm5.319-3.512a.332.332,0,0,1,.253.1.349.349,0,0,1,.1.247v7.159a.392.392,0,0,1-.106.247.332.332,0,0,1-.253.1.345.345,0,0,1-.348-.348v-7.159a.328.328,0,0,1,.107-.247A.354.354,0,0,1,228.1,1056.983Z" transform="translate(-211.327 -1056.87)"/>
      <path id="Tracé_396" data-name="Tracé 396" d="M241.524,1056.983h4.107a.346.346,0,0,1,.247.1.318.318,0,0,1,.1.241.3.3,0,0,1-.1.236.357.357,0,0,1-.247.09h-3.849l.112-.191v3.153l-.123-.146h3.355a.335.335,0,0,1,.247.1.324.324,0,0,1,.1.236.3.3,0,0,1-.1.236.355.355,0,0,1-.247.09h-3.332l.1-.112v3.232l-.056-.067h3.793a.336.336,0,0,1,.247.1.324.324,0,0,1,.1.236.3.3,0,0,1-.1.236.358.358,0,0,1-.247.089h-4.107a.318.318,0,0,1-.241-.1.333.333,0,0,1-.1-.236v-7.182a.333.333,0,0,1,.1-.236A.318.318,0,0,1,241.524,1056.983Z" transform="translate(-218.252 -1056.87)"/>
      <path id="Tracé_397" data-name="Tracé 397" d="M268.278,1064.838a.336.336,0,0,1-.348-.336v-7.182a.331.331,0,0,1,.1-.236.315.315,0,0,1,.241-.1h4.085a.333.333,0,0,1,.236.1.318.318,0,0,1,.1.241.305.305,0,0,1-.1.231.333.333,0,0,1-.236.1H268.57l.045-.068v2.985l-.056-.1h3.288a.333.333,0,0,1,.236.1.318.318,0,0,1,.1.241.3.3,0,0,1-.1.23.331.331,0,0,1-.236.1h-3.31l.079-.1v3.479a.333.333,0,0,1-.1.236A.317.317,0,0,1,268.278,1064.838Z" transform="translate(-228.151 -1056.87)"/>
      <path id="Tracé_398" data-name="Tracé 398" d="M289.448,1056.983a.318.318,0,0,1,.242.1.336.336,0,0,1,.1.236v4.646a2.929,2.929,0,0,1-.393,1.5,3,3,0,0,1-1.054,1.071,3,3,0,0,1-2.99,0,2.978,2.978,0,0,1-1.061-1.071,2.93,2.93,0,0,1-.393-1.5v-4.646a.334.334,0,0,1,.1-.236.344.344,0,0,1,.263-.1.344.344,0,0,1,.337.336v4.646a2.227,2.227,0,0,0,.309,1.167,2.343,2.343,0,0,0,.824.825,2.212,2.212,0,0,0,2.256,0,2.4,2.4,0,0,0,.83-.825,2.2,2.2,0,0,0,.314-1.167v-4.646a.344.344,0,0,1,.089-.236A.3.3,0,0,1,289.448,1056.983Z" transform="translate(-234.06 -1056.87)"/>
      <path id="Tracé_399" data-name="Tracé 399" d="M301.725,1057.622a.344.344,0,0,1-.236-.089.29.29,0,0,1-.1-.225.3.3,0,0,1,.1-.236.343.343,0,0,1,.236-.089h5.33a.357.357,0,0,1,.247.089.3.3,0,0,1,.1.236.282.282,0,0,1-.1.23.37.37,0,0,1-.247.084Zm2.671,7.215a.349.349,0,0,1-.258-.1.323.323,0,0,1-.1-.236v-7.148h.707v7.148a.323.323,0,0,1-.1.236A.336.336,0,0,1,304.4,1064.838Z" transform="translate(-240.536 -1056.87)"/>
      <path id="Tracé_400" data-name="Tracé 400" d="M324.652,1056.983a.318.318,0,0,1,.242.1.336.336,0,0,1,.1.236v4.646a2.93,2.93,0,0,1-.393,1.5,3,3,0,0,1-1.054,1.071,3,3,0,0,1-2.99,0,2.977,2.977,0,0,1-1.061-1.071,2.93,2.93,0,0,1-.393-1.5v-4.646a.333.333,0,0,1,.1-.236.345.345,0,0,1,.264-.1.344.344,0,0,1,.336.336v4.646a2.227,2.227,0,0,0,.309,1.167,2.344,2.344,0,0,0,.824.825,2.212,2.212,0,0,0,2.256,0,2.4,2.4,0,0,0,.83-.825,2.2,2.2,0,0,0,.314-1.167v-4.646a.344.344,0,0,1,.089-.236A.3.3,0,0,1,324.652,1056.983Z" transform="translate(-247.092 -1056.87)"/>
      <path id="Tracé_401" data-name="Tracé 401" d="M338.045,1064.838a.385.385,0,0,1-.275-.1.315.315,0,0,1-.106-.236v-7.182a.333.333,0,0,1,.1-.236.317.317,0,0,1,.241-.1h3.03a2.353,2.353,0,0,1,1.144.274,2.033,2.033,0,0,1,.791.758,2.115,2.115,0,0,1,.286,1.1,2.223,2.223,0,0,1-.18.9,1.962,1.962,0,0,1-.5.7,2.268,2.268,0,0,1-.729.432l-.393-.135a1.772,1.772,0,0,1,.774.275,1.715,1.715,0,0,1,.578.629,2.03,2.03,0,0,1,.23.948,6.7,6.7,0,0,0,.05.752,1.171,1.171,0,0,0,.118.4.612.612,0,0,0,.2.213.336.336,0,0,1,.152.191.277.277,0,0,1-.028.235.267.267,0,0,1-.135.129.439.439,0,0,1-.179.039.33.33,0,0,1-.168-.045,1.109,1.109,0,0,1-.326-.28,1.566,1.566,0,0,1-.263-.561,3.9,3.9,0,0,1-.107-1.032,1.574,1.574,0,0,0-.14-.713,1.192,1.192,0,0,0-.359-.432,1.285,1.285,0,0,0-.483-.213,2.411,2.411,0,0,0-.5-.056h-2.615l.124-.168v3.176a.344.344,0,0,1-.089.236A.3.3,0,0,1,338.045,1064.838Zm.2-3.972h2.817a1.547,1.547,0,0,0,.713-.247,1.63,1.63,0,0,0,.544-.6,1.823,1.823,0,0,0,.213-.892,1.418,1.418,0,0,0-.432-1.061,1.545,1.545,0,0,0-1.127-.421h-2.682l.078-.146v3.524Z" transform="translate(-253.964 -1056.87)"/>
      <path id="Tracé_402" data-name="Tracé 402" d="M355.816,1056.983h4.107a.346.346,0,0,1,.247.1.32.32,0,0,1,.1.241.3.3,0,0,1-.1.236.356.356,0,0,1-.247.09h-3.849l.112-.191v3.153l-.123-.146h3.355a.336.336,0,0,1,.247.1.323.323,0,0,1,.1.236.3.3,0,0,1-.1.236.356.356,0,0,1-.247.09h-3.333l.1-.112v3.232l-.056-.067h3.793a.336.336,0,0,1,.247.1.326.326,0,0,1,.1.236.3.3,0,0,1-.1.236.358.358,0,0,1-.247.089h-4.107a.317.317,0,0,1-.241-.1.334.334,0,0,1-.1-.236v-7.182a.334.334,0,0,1,.1-.236A.317.317,0,0,1,355.816,1056.983Z" transform="translate(-260.559 -1056.87)"/>
      <path id="Tracé_403" data-name="Tracé 403" d="M385.532,1056.983a2.046,2.046,0,0,1,1.475.51,1.874,1.874,0,0,1,.533,1.42,2.057,2.057,0,0,1-.2.9,1.684,1.684,0,0,1-.6.685,1.932,1.932,0,0,1-.971.3l-.056-.224a2.843,2.843,0,0,1,.813.118,2.07,2.07,0,0,1,.719.376,1.885,1.885,0,0,1,.51.646,2.1,2.1,0,0,1,.191.937,2.358,2.358,0,0,1-.2,1,1.844,1.844,0,0,1-.533.684,2.141,2.141,0,0,1-.758.382,3.24,3.24,0,0,1-.88.118h-3.019a.318.318,0,0,1-.241-.1.333.333,0,0,1-.1-.236v-7.182a.333.333,0,0,1,.1-.236.318.318,0,0,1,.241-.1Zm-.1.673h-2.626l.135-.213v3.175l-.123-.168h2.626a1.344,1.344,0,0,0,1.38-1.481,1.273,1.273,0,0,0-.365-.959A1.413,1.413,0,0,0,385.431,1057.656Zm.09,3.479h-2.637l.056-.079v3.22l-.067-.1h2.66a1.954,1.954,0,0,0,1.212-.365,1.363,1.363,0,0,0,.482-1.161,1.537,1.537,0,0,0-.236-.9,1.271,1.271,0,0,0-.629-.478A2.493,2.493,0,0,0,385.521,1061.135Z" transform="translate(-270.458 -1056.87)"/>
      <path id="Tracé_404" data-name="Tracé 404" d="M401.894,1057.838l-2.727,6.767a.368.368,0,0,1-.123.168.3.3,0,0,1-.18.056.321.321,0,0,1-.247-.085.292.292,0,0,1-.079-.207.288.288,0,0,1,.011-.135l2.963-7.249a.319.319,0,0,1,.128-.174.378.378,0,0,1,.2-.051.344.344,0,0,1,.208.062.4.4,0,0,1,.129.163l2.951,7.215a.416.416,0,0,1,.023.134.3.3,0,0,1-.1.241.354.354,0,0,1-.236.085.325.325,0,0,1-.2-.062.394.394,0,0,1-.129-.162l-2.794-6.823Zm-2.076,4.713.281-.662h3.479l.135.662Z" transform="translate(-276.497 -1056.85)"/>
      <path id="Tracé_405" data-name="Tracé 405" d="M422.833,1056.983a.3.3,0,0,1,.231.089.316.316,0,0,1,.084.225v7.181a.336.336,0,0,1-.106.264.352.352,0,0,1-.241.1.431.431,0,0,1-.152-.028.27.27,0,0,1-.118-.084l-5-6.733.191-.112v6.654a.292.292,0,0,1-.09.214.3.3,0,0,1-.224.089.3.3,0,0,1-.23-.089.3.3,0,0,1-.084-.214v-7.215a.317.317,0,0,1,.326-.336.453.453,0,0,1,.146.028.25.25,0,0,1,.123.1l4.948,6.665-.112.2V1057.3a.307.307,0,0,1,.314-.314Z" transform="translate(-283.365 -1056.87)"/>
      <path id="Tracé_406" data-name="Tracé 406" d="M436.286,1064.838a.328.328,0,0,1-.258-.1.359.359,0,0,1-.089-.247v-7.159a.336.336,0,0,1,.1-.247.35.35,0,0,1,.258-.1.344.344,0,0,1,.348.348v7.159a.379.379,0,0,1-.112.247A.336.336,0,0,1,436.286,1064.838Zm5.139-7.833a.3.3,0,0,1,.23.106.341.341,0,0,1,.1.231.311.311,0,0,1-.1.224l-5.094,4.78-.09-.774,4.7-4.456A.384.384,0,0,1,441.425,1057.005Zm.123,7.878a.308.308,0,0,1-.247-.124l-3.187-4.006.528-.527,3.209,4.062a.406.406,0,0,1,.079.236.308.308,0,0,1-.129.27A.444.444,0,0,1,441.549,1064.883Z" transform="translate(-290.342 -1056.87)"/>
      <path id="Tracé_407" data-name="Tracé 407" d="M454.55,1064.49a.371.371,0,0,1-.118.247.342.342,0,0,1-.241.1.327.327,0,0,1-.258-.1.359.359,0,0,1-.09-.247v-7.159a.337.337,0,0,1,.1-.247.348.348,0,0,1,.258-.1.342.342,0,0,1,.242.1.33.33,0,0,1,.106.247Z" transform="translate(-296.97 -1056.87)"/>
      <path id="Tracé_408" data-name="Tracé 408" d="M469.922,1056.983a.3.3,0,0,1,.23.089.317.317,0,0,1,.084.225v7.181a.336.336,0,0,1-.107.264.351.351,0,0,1-.241.1.428.428,0,0,1-.151-.028.27.27,0,0,1-.118-.084l-5-6.733.191-.112v6.654a.292.292,0,0,1-.09.214.3.3,0,0,1-.224.089.3.3,0,0,1-.314-.3v-7.215a.316.316,0,0,1,.326-.336.446.446,0,0,1,.146.028.245.245,0,0,1,.123.1l4.949,6.665-.112.2V1057.3a.307.307,0,0,1,.314-.314Z" transform="translate(-300.796 -1056.87)"/>
      <path id="Tracé_409" data-name="Tracé 409" d="M486.24,1064.884a4.182,4.182,0,0,1-1.61-.3,3.936,3.936,0,0,1-1.285-.847,3.823,3.823,0,0,1-.853-1.285,4.4,4.4,0,0,1,0-3.209,3.824,3.824,0,0,1,.853-1.285,3.939,3.939,0,0,1,1.285-.847,4.182,4.182,0,0,1,1.61-.3,4.625,4.625,0,0,1,1.144.141,3.531,3.531,0,0,1,1,.421.389.389,0,0,1,.118.129.337.337,0,0,1,.039.163.309.309,0,0,1-.107.241.328.328,0,0,1-.219.1.3.3,0,0,1-.1-.016l-.1-.04a4.325,4.325,0,0,0-.831-.331,3.412,3.412,0,0,0-.942-.128,3.318,3.318,0,0,0-1.717.443,3.192,3.192,0,0,0-1.178,1.2,3.7,3.7,0,0,0,0,3.45,3.133,3.133,0,0,0,1.178,1.2,3.35,3.35,0,0,0,1.717.437,3.693,3.693,0,0,0,1.015-.146,3.117,3.117,0,0,0,.881-.393l-.056.236v-2.58l.168.157h-1.941a.335.335,0,0,1-.247-.1.323.323,0,0,1-.1-.236.312.312,0,0,1,.1-.247.355.355,0,0,1,.247-.09h2.132a.342.342,0,0,1,.253.1.326.326,0,0,1,.1.241v2.7a.336.336,0,0,1-.045.169.424.424,0,0,1-.123.134,4.465,4.465,0,0,1-1.117.533A4.121,4.121,0,0,1,486.24,1064.884Z" transform="translate(-307.463 -1056.804)"/>
      <path id="Tracé_410" data-name="Tracé 410" d="M513.815,1064.884a3.554,3.554,0,0,1-1.481-.263,4.025,4.025,0,0,1-1.2-.836.6.6,0,0,1-.1-.123.313.313,0,0,1-.039-.157.352.352,0,0,1,.106-.247.326.326,0,0,1,.241-.112.342.342,0,0,1,.247.112,3.016,3.016,0,0,0,.993.718,2.9,2.9,0,0,0,1.195.247,2.571,2.571,0,0,0,.96-.168,1.568,1.568,0,0,0,.668-.483,1.149,1.149,0,0,0,.247-.729,1.262,1.262,0,0,0-.287-.831,2.174,2.174,0,0,0-.735-.527,6.842,6.842,0,0,0-1.021-.37q-.46-.146-.88-.32a3.091,3.091,0,0,1-.741-.426,1.757,1.757,0,0,1-.5-.622,2.017,2.017,0,0,1-.18-.887,1.852,1.852,0,0,1,.314-1.061,2.092,2.092,0,0,1,.892-.729,3.2,3.2,0,0,1,1.341-.264,3.659,3.659,0,0,1,1.273.225,2.206,2.206,0,0,1,.971.662.506.506,0,0,1,.169.326.316.316,0,0,1-.112.23.351.351,0,0,1-.247.107.257.257,0,0,1-.191-.079,2,2,0,0,0-.482-.421,2.473,2.473,0,0,0-.646-.286,2.659,2.659,0,0,0-.735-.1,2.614,2.614,0,0,0-.948.162,1.526,1.526,0,0,0-.662.465,1.15,1.15,0,0,0-.241.741,1.1,1.1,0,0,0,.269.769,2.091,2.091,0,0,0,.707.494q.437.2.931.365a9.513,9.513,0,0,1,.926.309,3.3,3.3,0,0,1,.785.432,1.826,1.826,0,0,1,.539.651,2.207,2.207,0,0,1,.2.988,1.748,1.748,0,0,1-.325,1.032,2.249,2.249,0,0,1-.892.729A3.174,3.174,0,0,1,513.815,1064.884Z" transform="translate(-318.127 -1056.804)"/>
      <path id="Tracé_411" data-name="Tracé 411" d="M534.616,1060.844a4.582,4.582,0,0,1-.275,1.621,3.824,3.824,0,0,1-.78,1.279,3.5,3.5,0,0,1-1.195.841,4,4,0,0,1-3.024,0,3.51,3.51,0,0,1-1.189-.841,3.9,3.9,0,0,1-.785-1.279,4.821,4.821,0,0,1,0-3.243,3.9,3.9,0,0,1,.785-1.279,3.517,3.517,0,0,1,1.189-.841,3.986,3.986,0,0,1,3.024,0,3.5,3.5,0,0,1,1.195.841,3.824,3.824,0,0,1,.78,1.279A4.582,4.582,0,0,1,534.616,1060.844Zm-.718,0a3.763,3.763,0,0,0-.393-1.757,2.994,2.994,0,0,0-1.071-1.184,2.9,2.9,0,0,0-1.576-.426,2.885,2.885,0,0,0-2.654,1.61,4.175,4.175,0,0,0,0,3.513,3.034,3.034,0,0,0,4.231,1.183,2.993,2.993,0,0,0,1.071-1.183A3.761,3.761,0,0,0,533.9,1060.844Z" transform="translate(-324.083 -1056.804)"/>
      <path id="Tracé_412" data-name="Tracé 412" d="M551.782,1064.176a.349.349,0,0,1,.247.1.308.308,0,0,1,.1.231.32.32,0,0,1-.1.241.346.346,0,0,1-.247.1h-4a.316.316,0,0,1-.241-.1.334.334,0,0,1-.1-.236v-7.182a.324.324,0,0,1,.1-.236.349.349,0,0,1,.258-.1.342.342,0,0,1,.242.1.317.317,0,0,1,.107.236v7.047l-.214-.191Z" transform="translate(-331.621 -1056.87)"/>
      <path id="Tracé_413" data-name="Tracé 413" d="M568.006,1056.983a.318.318,0,0,1,.241.1.334.334,0,0,1,.1.236v4.646a2.929,2.929,0,0,1-.393,1.5,2.992,2.992,0,0,1-1.055,1.071,2.835,2.835,0,0,1-1.492.4,2.868,2.868,0,0,1-1.5-.4,2.978,2.978,0,0,1-1.061-1.071,2.935,2.935,0,0,1-.392-1.5v-4.646a.331.331,0,0,1,.1-.236.343.343,0,0,1,.263-.1.345.345,0,0,1,.337.336v4.646a2.227,2.227,0,0,0,.309,1.167,2.344,2.344,0,0,0,.825.825,2.211,2.211,0,0,0,2.255,0,2.394,2.394,0,0,0,.831-.825,2.2,2.2,0,0,0,.314-1.167v-4.646a.345.345,0,0,1,.09-.236A.3.3,0,0,1,568.006,1056.983Z" transform="translate(-337.174 -1056.87)"/>
      <path id="Tracé_414" data-name="Tracé 414" d="M580.284,1057.622a.343.343,0,0,1-.236-.089.288.288,0,0,1-.1-.225.3.3,0,0,1,.1-.236.342.342,0,0,1,.236-.089h5.33a.355.355,0,0,1,.246.089.3.3,0,0,1,.1.236.282.282,0,0,1-.1.23.368.368,0,0,1-.246.084Zm2.67,7.215a.348.348,0,0,1-.258-.1.325.325,0,0,1-.1-.236v-7.148h.707v7.148a.324.324,0,0,1-.1.236A.336.336,0,0,1,582.955,1064.838Z" transform="translate(-343.651 -1056.87)"/>
      <path id="Tracé_415" data-name="Tracé 415" d="M598.364,1064.49a.37.37,0,0,1-.117.247.344.344,0,0,1-.242.1.326.326,0,0,1-.258-.1.356.356,0,0,1-.09-.247v-7.159a.336.336,0,0,1,.1-.247.35.35,0,0,1,.258-.1.341.341,0,0,1,.241.1.327.327,0,0,1,.106.247Z" transform="translate(-350.206 -1056.87)"/>
      <path id="Tracé_416" data-name="Tracé 416" d="M614.683,1060.844a4.6,4.6,0,0,1-.275,1.621,3.822,3.822,0,0,1-.78,1.279,3.5,3.5,0,0,1-1.195.841,4,4,0,0,1-3.024,0,3.509,3.509,0,0,1-1.189-.841,3.888,3.888,0,0,1-.785-1.279,4.821,4.821,0,0,1,0-3.243,3.888,3.888,0,0,1,.785-1.279,3.516,3.516,0,0,1,1.189-.841,3.986,3.986,0,0,1,3.024,0,3.5,3.5,0,0,1,1.195.841,3.822,3.822,0,0,1,.78,1.279A4.6,4.6,0,0,1,614.683,1060.844Zm-.718,0a3.763,3.763,0,0,0-.393-1.757,2.994,2.994,0,0,0-1.071-1.184,2.9,2.9,0,0,0-1.576-.426,2.883,2.883,0,0,0-2.654,1.61,4.174,4.174,0,0,0,0,3.513,3.034,3.034,0,0,0,4.231,1.183,2.994,2.994,0,0,0,1.071-1.183A3.761,3.761,0,0,0,613.965,1060.844Z" transform="translate(-353.721 -1056.804)"/>
      <path id="Tracé_417" data-name="Tracé 417" d="M633.262,1056.983a.3.3,0,0,1,.23.089.315.315,0,0,1,.084.225v7.181a.336.336,0,0,1-.106.264.353.353,0,0,1-.241.1.431.431,0,0,1-.152-.028.274.274,0,0,1-.118-.084l-5-6.733.191-.112v6.654a.292.292,0,0,1-.09.214.3.3,0,0,1-.224.089.3.3,0,0,1-.314-.3v-7.215a.317.317,0,0,1,.326-.336.446.446,0,0,1,.146.028.247.247,0,0,1,.124.1l4.949,6.665-.113.2V1057.3a.307.307,0,0,1,.314-.314Z" transform="translate(-361.259 -1056.87)"/>
    </g>
    <line id="Ligne_1" data-name="Ligne 1" x2="9.715" transform="translate(409.261 913.394)" fill="lime"/>
    <path id="Tracé_418" data-name="Tracé 418" d="M363.578,866.946V838.837a.645.645,0,0,1,.672-.671h22.4a1.668,1.668,0,0,0,1.008-.448l18.589-22.4a.592.592,0,0,0-.112-.9c-.112-.112-.224-.112-.448-.112h-9.407a2.8,2.8,0,0,0-2.015.9l-10.191,12.319a.852.852,0,0,1-.448.224H356.971a3.776,3.776,0,0,0-3.807,3.807h0v42.667a3.776,3.776,0,0,0,3.807,3.807h31.244a2.392,2.392,0,0,0,1.9-.9l7.055-8.511a.593.593,0,0,0-.112-.9c-.112-.112-.224-.112-.448-.112H364.138a.627.627,0,0,1-.56-.671h0" transform="translate(-64.589 0)" fill="#08253e"/>
    <path id="Tracé_419" data-name="Tracé 419" d="M461.093,882.123V839.456a3.776,3.776,0,0,0-3.807-3.807H426.042a2.392,2.392,0,0,0-1.9.9l-7.055,8.51a.593.593,0,0,0,.112.9c.112.112.224.112.448.112h32.476a.723.723,0,0,1,.672.671v28.109a.723.723,0,0,1-.672.671h-22.4a1.668,1.668,0,0,0-1.008.448l-18.589,22.4a.584.584,0,0,0-.112.9c.112.224.336.224.56.224h9.407a2.392,2.392,0,0,0,1.9-.9l10.3-12.318a.852.852,0,0,1,.448-.224h26.653a3.8,3.8,0,0,0,3.807-3.919h0" transform="translate(-84.835 -7.898)" fill="#40f2f3"/>
    <path id="Tracé_420" data-name="Tracé 420" d="M179.914,1010.82h5.5a1.246,1.246,0,0,0,1.235-1.235V973.2a1.247,1.247,0,0,0-1.235-1.236h-5.5a1.247,1.247,0,0,0-1.235,1.236v36.383a1.246,1.246,0,0,0,1.235,1.235" transform="translate(0 -58.359)" fill="#08253e"/>
    <path id="Tracé_421" data-name="Tracé 421" d="M218.4,987.687H204.814a1.18,1.18,0,0,0-1.011.562l-4.154,5.839a.606.606,0,0,0,.224.9.412.412,0,0,0,.337.113H218.4v14.485a1.246,1.246,0,0,0,1.236,1.235h5.5a1.246,1.246,0,0,0,1.235-1.235V973.2a1.246,1.246,0,0,0-1.235-1.236h-5.5A1.247,1.247,0,0,0,218.4,973.2Z" transform="translate(-7.719 -58.359)" fill="#08253e"/>
    <path id="Tracé_422" data-name="Tracé 422" d="M275.6,979.49h25.6a1.246,1.246,0,0,0,1.236-1.235V973.2a1.247,1.247,0,0,0-1.236-1.236H268.525a1.247,1.247,0,0,0-1.235,1.236v36.271a1.246,1.246,0,0,0,1.235,1.235h32.79a1.246,1.246,0,0,0,1.235-1.235h0v-5.053a1.246,1.246,0,0,0-1.235-1.235H275.6a.242.242,0,0,1-.225-.225h0V979.827c-.112-.225,0-.337.225-.337h0" transform="translate(-32.801 -58.359)" fill="#08253e"/>
    <path id="Tracé_423" data-name="Tracé 423" d="M308.582,1002.991v-4.828a1.247,1.247,0,0,0-1.236-1.236H293.422a1.18,1.18,0,0,0-1.011.562l-4.154,5.839a.679.679,0,0,0,.112.9.412.412,0,0,0,.337.113h18.64a1.349,1.349,0,0,0,1.236-1.348" transform="translate(-40.517 -67.598)" fill="#08253e"/>
    <path id="Tracé_424" data-name="Tracé 424" d="M614.479,996l-16.619-22.009a1.266,1.266,0,0,1,.225-1.8,1.623,1.623,0,0,1,.786-.225h6.737a1.18,1.18,0,0,1,1.011.562l11.79,16.058a.414.414,0,0,0,.337.112l.113-.112,11.9-16.058a1.338,1.338,0,0,1,1.01-.562h6.738a1.247,1.247,0,0,1,1.235,1.236,2.079,2.079,0,0,1-.225.786L623.013,996v13.475a1.246,1.246,0,0,1-1.235,1.235h-5.951a1.246,1.246,0,0,1-1.236-1.235h0V996.109l-.112-.112" transform="translate(-155.066 -58.359)" fill="#08253e"/>
    <path id="Tracé_425" data-name="Tracé 425" d="M564.1,1008.667l-21.9-36.383a1.233,1.233,0,0,0-1.123-.674h-8.646a1.382,1.382,0,0,0-1.123.561L509.3,1008.555a1.321,1.321,0,0,0,.449,1.8,1.6,1.6,0,0,0,.674.224H516.6a1.235,1.235,0,0,0,1.123-.674l18.528-30.993a.413.413,0,0,1,.337-.112.11.11,0,0,1,.112.112l9.433,15.721H533.221a1.236,1.236,0,0,0-1.123.673l-3.481,5.84a.607.607,0,0,0,.225.9.412.412,0,0,0,.337.112h21.336l4.716,7.973a1.49,1.49,0,0,0,1.123.674h6.625a1.436,1.436,0,0,0,1.348-1.235,1.735,1.735,0,0,0-.225-.9" transform="translate(-122.319 -58.227)" fill="#08253e"/>
    <path id="Tracé_426" data-name="Tracé 426" d="M381.811,991.215c0,6.962-4.379,11.678-11.791,11.678H356.544a.241.241,0,0,1-.224-.225h0V979.761a.242.242,0,0,1,.224-.225H370.02c7.412,0,11.791,4.717,11.791,11.679Zm-10.78-19.427H349.47a1.246,1.246,0,0,0-1.235,1.235v36.271a1.246,1.246,0,0,0,1.235,1.235h21.56c13.026,0,18.865-10.219,18.865-19.427s-5.727-19.314-18.865-19.314" transform="translate(-62.765 -58.293)" fill="#08253e"/>
    <path id="Tracé_427" data-name="Tracé 427" d="M463.083,992.74H455a1.18,1.18,0,0,0-1.011.562l-4.267,5.951a.608.608,0,0,0,.225.9.413.413,0,0,0,.337.112h13.362c9.994,0,14.374-6.85,14.374-14.261s-4.155-14.037-14.374-14.037H437.368a1.246,1.246,0,0,0-1.235,1.236v36.271a1.246,1.246,0,0,0,1.235,1.235h5.5a1.246,1.246,0,0,0,1.236-1.235h0V979.827a.242.242,0,0,1,.224-.225h18.753c5.839,0,6.737,4.267,6.737,6.289s-.561,6.849-6.737,6.849" transform="translate(-95.302 -58.359)" fill="#08253e"/>
  </g>
</svg>
