<svg xmlns="http://www.w3.org/2000/svg" width="13.828" height="13.828" viewBox="0 0 13.828 13.828"><defs><style>.a{fill:#2dccd3;}</style></defs><path class="a" d="M14.914,8a6.914,6.914,0,1,0,6.914,6.914A6.915,6.915,0,0,0,14.914,8Zm0,12.49a5.576,5.576,0,1,1,5.576-5.576A5.573,5.573,0,0,1,14.914,20.49Zm2.99-7.115c0,1.869-2.019,1.9-2.019,2.589v.177a.335.335,0,0,1-.335.335H14.278a.335.335,0,0,1-.335-.335V15.9c0-1,.756-1.395,1.326-1.715.49-.274.79-.461.79-.825,0-.481-.613-.8-1.109-.8-.646,0-.945.306-1.364.836a.335.335,0,0,1-.465.059l-.776-.588a.335.335,0,0,1-.074-.456,3.134,3.134,0,0,1,2.8-1.511A2.769,2.769,0,0,1,17.9,13.375Zm-1.819,4.661a1.171,1.171,0,1,1-1.171-1.171A1.172,1.172,0,0,1,16.085,18.037Z" transform="translate(-8 -8)"/></svg>