<svg xmlns="http://www.w3.org/2000/svg" width="23.445" height="18.756" viewBox="0 0 23.445 18.756"><defs><style>.a{fill:#002554;}</style></defs><path class="a" d="M8.206,9.378A4.689,4.689,0,1,0,3.517,4.689,4.689,4.689,0,0,0,8.206,9.378Zm3.282,1.172h-.612a6.377,6.377,0,0,1-5.341,0H4.923A4.925,4.925,0,0,0,0,15.474V17a1.759,1.759,0,0,0,1.758,1.758H14.653A1.759,1.759,0,0,0,16.411,17V15.474A4.925,4.925,0,0,0,11.488,10.55Zm11.832-4.7L22.3,4.817a.434.434,0,0,0-.615,0l-3.839,3.81L16.181,6.946a.434.434,0,0,0-.615,0L14.536,7.964a.434.434,0,0,0,0,.615l2.993,3.015a.434.434,0,0,0,.615,0l5.176-5.136A.438.438,0,0,0,23.32,5.847Z"/></svg>