<svg xmlns="http://www.w3.org/2000/svg" width="18.571" height="16.25" viewBox="0 0 18.571 16.25"><defs><style>.a{fill:#2dccd3;}</style></defs><path class="a" d="M16.729,35.482H2.9a.58.58,0,1,1,0-1.161H16.83a.58.58,0,0,0,.58-.58A1.741,1.741,0,0,0,15.67,32H2.321A2.321,2.321,0,0,0,0,34.321V45.929A2.321,2.321,0,0,0,2.321,48.25H16.729a1.8,1.8,0,0,0,1.843-1.741V37.223A1.8,1.8,0,0,0,16.729,35.482Zm-1.64,7.545a1.161,1.161,0,1,1,1.161-1.161A1.161,1.161,0,0,1,15.089,43.027Z" transform="translate(0 -32)"/></svg>