<svg xmlns="http://www.w3.org/2000/svg" viewBox="0 0 63.1 30"><rect x="12.59" width="45" height="30" rx="4" style="fill:#ffa300"/><path d="M42.93,12.48l1.75,5h-3.5ZM46.26,22h2.19L43.88,9.91H42L37.43,22h2.18l1-2.81h4.68Zm-8.53-6.8H32.86V11.61h5.58V9.91H30.76V22h2.1V16.88h4.87ZM28.9,20.39H23.29l3-3.16A10.94,10.94,0,0,0,27.92,15a4.13,4.13,0,0,0,.51-1.89,3.08,3.08,0,0,0-1-2.45,4.06,4.06,0,0,0-2.77-.88,4.56,4.56,0,0,0-2.16.49,3.38,3.38,0,0,0-1.43,1.37,3.9,3.9,0,0,0-.51,2h2A2.37,2.37,0,0,1,23.1,12a2,2,0,0,1,1.52-.59,1.68,1.68,0,0,1,1.31.53,2,2,0,0,1,.48,1.39A2.58,2.58,0,0,1,26,14.6a9.59,9.59,0,0,1-1.24,1.62l-4,4.39V22H28.9Z" style="fill:#f5f7fa"/><path d="M9.56,6H1.69A1.69,1.69,0,0,0,0,7.69H0V22.31A1.69,1.69,0,0,0,1.69,24H9.56a1.69,1.69,0,0,0,1.69-1.69V7.69A1.69,1.69,0,0,0,9.56,6ZM5.63,22.88a1.13,1.13,0,1,1,1.12-1.13,1.13,1.13,0,0,1-1.12,1.13Zm3.93-3.81a.42.42,0,0,1-.42.43h-7a.42.42,0,0,1-.42-.43v-11a.42.42,0,0,1,.42-.42h7a.42.42,0,0,1,.42.42Z" style="fill:#002554"/><path d="M57.59,12.69A2.31,2.31,0,1,0,59.9,15a2.32,2.32,0,0,0-2.31-2.31Zm0,2.85a.54.54,0,1,1,.54-.54h0a.54.54,0,0,1-.54.53Zm0-6A5.51,5.51,0,1,0,63.1,15a5.51,5.51,0,0,0-5.51-5.51Zm0,8.36A2.85,2.85,0,1,1,60.44,15a2.85,2.85,0,0,1-2.85,2.85Z" style="fill:#ff000a"/></svg>