<svg xmlns="http://www.w3.org/2000/svg" width="17.143" height="16" viewBox="0 0 17.143 16"><defs><style>.a{fill:#f5f7fa;}</style></defs><path class="a" d="M33.143,35.428V36a.286.286,0,0,1-.286.286H32v.429a.429.429,0,0,1-.429.429h-14a.429.429,0,0,1-.429-.429v-.429h-.857A.286.286,0,0,1,16,36v-.571a.286.286,0,0,1,.176-.264l8.286-3.143a.286.286,0,0,1,.218,0l8.286,3.143A.286.286,0,0,1,33.143,35.428Zm-.857,10.857H16.857a.857.857,0,0,0-.857.857v.571a.286.286,0,0,0,.286.286H32.857a.286.286,0,0,0,.286-.286v-.571A.857.857,0,0,0,32.286,46.285ZM18.857,37.714v6.857H17.571a.429.429,0,0,0-.429.429v.714H32V45a.429.429,0,0,0-.429-.429H30.286V37.714H28v6.857H25.714V37.714H23.429v6.857H21.143V37.714Z" transform="translate(-16 -32)"/></svg>