<svg xmlns="http://www.w3.org/2000/svg" width="29.489" height="22.117" viewBox="0 0 29.489 22.117"><defs><style>.a{fill:#2dccd3;}</style></defs><path class="a" d="M28.93,71.3a.347.347,0,0,1,.559.271V83.352a2.765,2.765,0,0,1-2.765,2.765H2.765A2.765,2.765,0,0,1,0,83.352V71.58a.344.344,0,0,1,.559-.271c1.29,1,3,2.275,8.875,6.543,1.215.887,3.266,2.753,5.31,2.742,2.056.017,4.147-1.889,5.316-2.742C25.935,73.584,27.64,72.305,28.93,71.3ZM14.744,78.744c1.336.023,3.26-1.682,4.227-2.384,7.643-5.546,8.225-6.03,9.987-7.412a1.378,1.378,0,0,0,.53-1.089V66.765A2.765,2.765,0,0,0,26.724,64H2.765A2.765,2.765,0,0,0,0,66.765v1.094a1.387,1.387,0,0,0,.53,1.089c1.762,1.377,2.344,1.866,9.987,7.412C11.484,77.063,13.408,78.767,14.744,78.744Z" transform="translate(0 -64)"/></svg>