<svg xmlns="http://www.w3.org/2000/svg" width="23.038" height="18" viewBox="0 0 23.038 18"><defs><style>.a{fill:#2dccd3;}</style></defs><path class="a" d="M0,61.017V60.3a1.08,1.08,0,0,1,1.08-1.08h16.2v-2.16a1.081,1.081,0,0,1,1.843-.764l3.6,3.6a1.08,1.08,0,0,1,0,1.527l-3.6,3.6a1.081,1.081,0,0,1-1.843-.764V62.1H1.08A1.08,1.08,0,0,1,0,61.017Zm21.958,6.839H5.759V65.7a1.081,1.081,0,0,0-1.843-.764l-3.6,3.6a1.08,1.08,0,0,0,0,1.527l3.6,3.6A1.081,1.081,0,0,0,5.759,72.9v-2.16h16.2a1.08,1.08,0,0,0,1.08-1.08v-.72A1.08,1.08,0,0,0,21.958,67.856Z" transform="translate(0 -55.976)"/></svg>