<svg xmlns="http://www.w3.org/2000/svg" width="18" height="18" viewBox="0 0 18 18"><defs><style>.a{fill:#ffa300;}</style></defs><path class="a" d="M17.357,37.143H.643A.643.643,0,0,0,0,37.786v1.286a.643.643,0,0,0,.643.643H17.357A.643.643,0,0,0,18,39.071V37.786A.643.643,0,0,0,17.357,37.143Zm0,10.286H.643A.643.643,0,0,0,0,48.071v1.286A.643.643,0,0,0,.643,50H17.357A.643.643,0,0,0,18,49.357V48.071A.643.643,0,0,0,17.357,47.429ZM4.343,34.571h9.314a.486.486,0,0,0,.486-.486v-1.6A.486.486,0,0,0,13.657,32H4.343a.486.486,0,0,0-.486.486v1.6A.486.486,0,0,0,4.343,34.571Zm9.314,10.286a.486.486,0,0,0,.486-.486v-1.6a.486.486,0,0,0-.486-.486H4.343a.486.486,0,0,0-.486.486v1.6a.486.486,0,0,0,.486.486Z" transform="translate(0 -32)"/></svg>