<svg xmlns="http://www.w3.org/2000/svg" width="82.402" height="15.392" viewBox="0 0 82.402 15.392"><defs><style>.a{fill:#fff;}.b{fill:#2dccd3;}</style></defs><g transform="translate(0 0)"><path class="a" d="M818.572,351.056v-5.6a.129.129,0,0,1,.134-.134h4.461a.333.333,0,0,0,.2-.089l3.7-4.461a.118.118,0,0,0-.022-.179c-.022-.022-.045-.022-.089-.022h-1.874a.559.559,0,0,0-.4.178l-2.03,2.454a.169.169,0,0,1-.089.045h-5.309a.752.752,0,0,0-.759.758h0v8.5a.752.752,0,0,0,.759.758h6.224a.476.476,0,0,0,.379-.178l1.405-1.7a.118.118,0,0,0-.022-.178c-.022-.022-.044-.022-.089-.022h-6.469a.125.125,0,0,1-.111-.134h0" transform="translate(-816.497 -340.572)"/><path class="b" d="M890.378,374.515v-8.5a.752.752,0,0,0-.758-.758H883.4a.477.477,0,0,0-.379.178l-1.405,1.7a.118.118,0,0,0,.022.178c.022.022.045.022.089.022h6.469a.144.144,0,0,1,.134.134v5.6a.144.144,0,0,1-.134.134h-4.461a.333.333,0,0,0-.2.089l-3.7,4.462a.116.116,0,0,0-.022.178c.022.045.067.045.112.045h1.874a.476.476,0,0,0,.379-.178l2.052-2.454a.17.17,0,0,1,.089-.045h5.309a.758.758,0,0,0,.758-.781h0" transform="translate(-872.912 -362.58)"/><g transform="translate(21.447 3.793)"><path class="a" d="M1014.513,383.7h1.1a.248.248,0,0,0,.246-.246v-7.248a.248.248,0,0,0-.246-.246h-1.1a.248.248,0,0,0-.246.246v7.248a.248.248,0,0,0,.246.246" transform="translate(-1014.267 -375.914)"/><path class="a" d="M1042.152,379.091h-2.707a.235.235,0,0,0-.2.112l-.828,1.163a.121.121,0,0,0,.045.179.082.082,0,0,0,.067.022h3.624v2.886a.248.248,0,0,0,.246.246h1.1a.248.248,0,0,0,.246-.246v-7.248a.248.248,0,0,0-.246-.246h-1.1a.248.248,0,0,0-.246.246Z" transform="translate(-1035.777 -375.914)"/><path class="a" d="M1118.44,377.458h5.1a.248.248,0,0,0,.246-.246v-1.007a.248.248,0,0,0-.246-.246h-6.509a.248.248,0,0,0-.246.246v7.225a.248.248,0,0,0,.246.246h6.532a.248.248,0,0,0,.246-.246h0v-1.007a.248.248,0,0,0-.246-.246h-5.123a.048.048,0,0,1-.045-.045h0v-4.608c-.022-.045,0-.067.045-.067h0" transform="translate(-1105.668 -375.914)"/><path class="a" d="M1144.974,406.045v-.962a.248.248,0,0,0-.246-.246h-2.774a.235.235,0,0,0-.2.112l-.828,1.163a.135.135,0,0,0,.022.179.082.082,0,0,0,.067.022h3.713a.269.269,0,0,0,.246-.268" transform="translate(-1127.168 -401.661)"/><path class="a" d="M1502.28,380.746l-3.311-4.384a.252.252,0,0,1,.045-.358.324.324,0,0,1,.157-.045h1.342a.235.235,0,0,1,.2.112l2.349,3.2a.082.082,0,0,0,.067.022l.022-.022,2.371-3.2a.267.267,0,0,1,.2-.112h1.342a.248.248,0,0,1,.246.246.414.414,0,0,1-.045.157l-3.288,4.384v2.684a.248.248,0,0,1-.246.246h-1.185a.248.248,0,0,1-.246-.246h0v-2.662l-.022-.022" transform="translate(-1446.357 -375.914)"/><path class="a" d="M1407.52,382.928l-4.362-7.248a.246.246,0,0,0-.223-.134h-1.723a.275.275,0,0,0-.224.112l-4.384,7.247a.263.263,0,0,0,.09.358.317.317,0,0,0,.134.045h1.23a.246.246,0,0,0,.224-.134l3.691-6.174a.082.082,0,0,1,.067-.022.022.022,0,0,1,.022.022l1.879,3.132h-2.573a.246.246,0,0,0-.224.134l-.693,1.163a.121.121,0,0,0,.045.179.082.082,0,0,0,.067.022h4.25l.939,1.588a.3.3,0,0,0,.224.134h1.32a.286.286,0,0,0,.268-.246.347.347,0,0,0-.045-.179" transform="translate(-1355.11 -375.546)"/><path class="a" d="M1217.122,379.623a2.179,2.179,0,0,1-2.349,2.326h-2.684a.048.048,0,0,1-.045-.045h0v-4.563a.048.048,0,0,1,.045-.045h2.684a2.179,2.179,0,0,1,2.349,2.326Zm-2.147-3.87h-4.295a.248.248,0,0,0-.246.246v7.225a.248.248,0,0,0,.246.246h4.295a3.86,3.86,0,0,0,0-7.717" transform="translate(-1189.161 -375.731)"/><path class="a" d="M1317.5,380.1h-1.61a.235.235,0,0,0-.2.112l-.85,1.186a.121.121,0,0,0,.045.179.083.083,0,0,0,.067.022h2.662a2.666,2.666,0,0,0,2.863-2.841,2.61,2.61,0,0,0-2.863-2.8h-5.234a.248.248,0,0,0-.246.246v7.225a.248.248,0,0,0,.246.246h1.1a.248.248,0,0,0,.246-.246h0v-5.905a.048.048,0,0,1,.045-.045h3.735a1.2,1.2,0,0,1,1.342,1.253,1.236,1.236,0,0,1-1.342,1.364" transform="translate(-1279.826 -375.914)"/></g></g></svg>