<svg xmlns="http://www.w3.org/2000/svg" width="23.147" height="18" viewBox="0 0 23.147 18"><defs><style>.a{fill:#2dccd3;}</style></defs><path class="a" d="M11.251,36.72l-7.409,6.1v6.586a.643.643,0,0,0,.643.643l4.5-.012a.643.643,0,0,0,.64-.643V45.549a.643.643,0,0,1,.643-.643h2.572a.643.643,0,0,1,.643.643v3.843a.643.643,0,0,0,.643.645l4.5.012a.643.643,0,0,0,.643-.643v-6.59l-7.407-6.1a.49.49,0,0,0-.615,0Zm11.7,4.147L19.595,38.1V32.532a.482.482,0,0,0-.482-.482h-2.25a.482.482,0,0,0-.482.482V35.45l-3.6-2.96a1.929,1.929,0,0,0-2.451,0L.16,40.867a.482.482,0,0,0-.064.679L1.12,42.792a.482.482,0,0,0,.679.065l9.452-7.785a.49.49,0,0,1,.615,0l9.452,7.785A.482.482,0,0,0,22,42.793l1.025-1.246a.482.482,0,0,0-.068-.68Z" transform="translate(0.015 -32.05)"/></svg>