<svg xmlns="http://www.w3.org/2000/svg" viewBox="0 0 58.87 30"><rect x="13.87" width="45" height="30" rx="4" style="fill:#2dccd3"/><path d="M50.12,18.07a2.87,2.87,0,0,1-.79,1.85,2.7,2.7,0,0,1-1.86.55,2.31,2.31,0,0,1-2-1,5.26,5.26,0,0,1-.71-3V15.38a5.08,5.08,0,0,1,.76-2.94A2.85,2.85,0,0,1,49.36,12a3,3,0,0,1,.76,1.88h2.09a4.54,4.54,0,0,0-1.42-3.07,4.68,4.68,0,0,0-3.22-1.08,4.87,4.87,0,0,0-2.62.7,4.64,4.64,0,0,0-1.74,2,7.17,7.17,0,0,0-.6,3V16.6a7,7,0,0,0,.62,2.94,4.48,4.48,0,0,0,1.7,1.94,4.67,4.67,0,0,0,2.54.69,4.87,4.87,0,0,0,3.31-1.09,4.36,4.36,0,0,0,1.43-3ZM34,9.91H31.7l4.06,7.64V22h2.11V17.55l4.05-7.64H39.59l-2.78,5.73ZM29.26,22h2.49L27,15.27l4.49-5.36H29l-3.53,4.24-1.17,1.43V9.91h-2.1V22h2.1V18.23l1.37-1.45Z" style="fill:#f5f7fa"/><path d="M8.91,7.68a8.92,8.92,0,1,0,8.91,8.91A8.91,8.91,0,0,0,8.91,7.68Zm0,4A1.51,1.51,0,1,1,7.4,13.14a1.52,1.52,0,0,1,1.51-1.51Zm2,9.13a.43.43,0,0,1-.43.43H7.33a.43.43,0,0,1-.43-.43V19.9a.43.43,0,0,1,.43-.43h.43v-2.3H7.33a.43.43,0,0,1-.43-.43v-.86a.43.43,0,0,1,.43-.43h2.3a.43.43,0,0,1,.43.43v3.59h.43a.43.43,0,0,1,.43.43Z" style="fill:#ffa300"/></svg>