<svg xmlns="http://www.w3.org/2000/svg" width="41.394" height="29" viewBox="0 0 41.394 29"><defs><style>.a,.b{fill:#002554;}.c,.d{stroke:none;}.d{fill:#fff;}</style></defs><g transform="translate(-74.606 -0.037)"><path class="a" d="M10.5,12a6,6,0,1,0-6-6A6,6,0,0,0,10.5,12Zm4.2,1.5h-.783a8.16,8.16,0,0,1-6.834,0H6.3A6.3,6.3,0,0,0,0,19.8v1.95A2.251,2.251,0,0,0,2.25,24h16.5A2.251,2.251,0,0,0,21,21.75V19.8A6.3,6.3,0,0,0,14.7,13.5Z" transform="translate(74.606 0.037)"/><g class="b" transform="translate(93.606 -22.933)"><path class="c" d="M 3.563275575637817 50.46969223022461 C 3.098735570907593 50.46969223022461 2.652975559234619 50.32406234741211 2.274195432662964 50.04855346679688 C 0.3955855071544647 48.68214416503906 -1.500004529953003 45.97188186645508 -1.500004529953003 42.9972038269043 C -1.500004529953003 39.74513244628906 -0.1627344936132431 37.39291381835938 2.474655389785767 36.00586318969727 C 4.156762599945068 35.12121200561523 6.383734226226807 34.62997436523438 9.409015655517578 34.4849739074707 L 9.409015655517578 32.90974426269531 C 9.409015655517578 31.58105278015137 10.49236583709717 30.50009346008301 11.82399559020996 30.50009346008301 C 12.39775562286377 30.50009346008301 12.95487594604492 30.70834350585938 13.39271545410156 31.08647346496582 L 20.05942535400391 36.84339141845703 C 20.5897159576416 37.30138397216797 20.89379501342773 37.96590423583984 20.89379501342773 38.66663360595703 C 20.89379501342773 39.36745071411133 20.5897159576416 40.03203201293945 20.05951499938965 40.48994445800781 L 13.39271545410156 46.24751281738281 C 12.95495223999023 46.62559127807617 12.39776802062988 46.8338508605957 11.82394599914551 46.8338508605957 C 11.823805809021 46.8338508605957 11.82375526428223 46.8338508605957 11.82361507415771 46.8338508605957 C 10.49219512939453 46.83368301391602 9.409015655517578 45.75273132324219 9.409015655517578 44.42425155639648 L 9.409015655517578 42.6562614440918 C 7.305023670196533 42.80818176269531 6.029895782470703 43.22406768798828 5.527805328369141 43.91752243041992 C 5.039705276489258 44.59165191650391 5.081385612487793 45.85825347900391 5.65168571472168 47.68212127685547 C 5.856265544891357 48.33633422851562 5.742635726928711 49.02577209472656 5.339935302734375 49.57363128662109 C 4.927515506744385 50.13471221923828 4.263345718383789 50.46969223022461 3.563275575637817 50.46969223022461 Z"/><path class="d" d="M 11.8239917755127 32.00009155273438 C 11.35565662384033 32.00003051757812 10.90901565551758 32.36411285400391 10.90901565551758 32.90974426269531 L 10.90901565551758 35.94203186035156 C 4.824625968933105 36.01169204711914 -3.814697265625e-06 37.23111343383789 -3.814697265625e-06 42.9972038269043 C -3.814697265625e-06 45.32450103759766 1.499265670776367 47.63009262084961 3.156524658203125 48.83550262451172 C 3.673687934875488 49.21166229248047 4.410725593566895 48.73955535888672 4.22004508972168 48.12978363037109 C 2.502485275268555 42.63690185546875 5.034695625305176 41.17865371704102 10.90901565551758 41.09415435791016 L 10.90901565551758 44.42424392700195 C 10.90901565551758 45.20832061767578 11.82946586608887 45.61564254760742 12.4122953414917 45.11226272583008 L 19.07906532287598 39.35473251342773 C 19.49842643737793 38.9925422668457 19.49899482727051 38.34136199951172 19.07906532287598 37.97868347167969 L 12.4122953414917 32.22171401977539 C 12.2354564666748 32.06898880004883 12.02762413024902 32.00011825561523 11.8239917755127 32.00009155273438 M 11.82387542724609 29.00009155273438 L 11.82443618774414 29.00009155273438 C 12.75793552398682 29.0002326965332 13.66306495666504 29.3380126953125 14.37311553955078 29.95121383666992 L 21.03978538513184 35.70809173583984 C 21.90034484863281 36.45133209228516 22.39379501342773 37.52961349487305 22.39379501342773 38.66662216186523 C 22.39380645751953 39.80373382568359 21.90034484863281 40.88207244873047 21.03997611999512 41.62516403198242 L 14.37312507629395 47.38275146484375 C 13.66306495666504 47.99604415893555 12.75766563415527 48.3338508605957 11.82381534576416 48.3338508605957 C 9.665185928344727 48.3338508605957 7.909015655517578 46.58001327514648 7.909015655517578 44.42424392700195 L 7.909015655517578 44.35786056518555 C 7.009349822998047 44.54281616210938 6.776141166687012 44.76154327392578 6.744568824768066 44.79546356201172 C 6.724769592285156 44.84341430664062 6.517522811889648 45.42496490478516 7.083335876464844 47.23446273803711 C 7.431875228881836 48.34907150268555 7.236955642700195 49.52548980712891 6.548545837402344 50.46203231811523 C 5.854625701904297 51.40608215332031 4.738635063171387 51.96969223022461 3.563275337219238 51.96969223022461 C 2.779596328735352 51.96969223022461 2.028736114501953 51.7248420715332 1.391864776611328 51.26160430908203 C 0.2047653198242188 50.39817047119141 -0.87469482421875 49.17804336547852 -1.64764404296875 47.82599258422852 C -2.532363891601562 46.2784538269043 -3.000003814697266 44.60868072509766 -3.000003814697266 42.9972038269043 C -3.000003814697266 38.19773101806641 -0.4025440216064453 35.82423400878906 1.776445388793945 34.67826080322266 C 3.395746231079102 33.8266487121582 5.348862648010254 33.31190872192383 7.909015655517578 33.08187484741211 L 7.909015655517578 32.90974426269531 C 7.909015655517578 30.75395202636719 9.665215492248535 29.00009155273438 11.82387542724609 29.00009155273438 Z"/></g></g></svg>