<svg xmlns="http://www.w3.org/2000/svg" width="27.622" height="18.867" viewBox="0 0 27.622 18.867"><defs><style>.a,.b{fill:#2dccd3;}.a{stroke:rgba(0,0,0,0);stroke-miterlimit:10;}</style></defs><g transform="translate(-76.378 -117.933)"><path class="a" d="M6884.2-2676.045h-11.614a1.591,1.591,0,0,1-1.589-1.59v-1.378a4.455,4.455,0,0,1,4.45-4.45H6876a5.762,5.762,0,0,0,2.414.53,5.747,5.747,0,0,0,2.414-.53h.553a4.433,4.433,0,0,1,3.044,1.2,5.59,5.59,0,0,0-1.006,3.407,5.772,5.772,0,0,0,.781,2.805Zm-5.786-8.477a4.243,4.243,0,0,1-4.238-4.239,4.243,4.243,0,0,1,4.238-4.239,4.243,4.243,0,0,1,4.239,4.239A4.243,4.243,0,0,1,6878.417-2684.523Z" transform="translate(-6794.122 2811.433)"/><path class="b" d="M13.478,36.224l-4.71-4.067a.643.643,0,0,0-1.062.486v2.142C3.408,34.834,0,35.7,0,39.769a5.47,5.47,0,0,0,2.23,4.124.477.477,0,0,0,.751-.5c-1.213-3.88.575-4.91,4.725-4.97v2.352a.643.643,0,0,0,1.062.486l4.71-4.067A.642.642,0,0,0,13.478,36.224Z" transform="translate(90.3 92.812)"/></g></svg>