<svg xmlns="http://www.w3.org/2000/svg" width="20.09" height="17.579" viewBox="0 0 20.09 17.579"><defs><style>.a{fill:#fff;}.b{fill:#002554;}.c{fill:#2dccd3;}</style></defs><path class="a" d="M10.045,32C4.5,32,0,35.653,0,40.162A7.244,7.244,0,0,0,2.237,45.29a9.982,9.982,0,0,1-2.15,3.759.312.312,0,0,0-.059.341.307.307,0,0,0,.286.188,8.973,8.973,0,0,0,5.517-2.017,11.967,11.967,0,0,0,4.214.761c5.548,0,10.045-3.653,10.045-8.162S15.593,32,10.045,32Z" transform="translate(0 -32)"/><g transform="translate(3.783 2.539)"><path class="b" d="M817.984,348.089v-4.014a.092.092,0,0,1,.1-.1h3.2a.238.238,0,0,0,.144-.064l2.655-3.2a.085.085,0,0,0-.016-.128c-.016-.016-.032-.016-.064-.016h-1.343a.4.4,0,0,0-.288.128l-1.455,1.759a.121.121,0,0,1-.064.032h-3.807a.539.539,0,0,0-.544.544h0v6.094a.539.539,0,0,0,.544.544H821.5a.341.341,0,0,0,.272-.128l1.008-1.216a.085.085,0,0,0-.016-.128c-.016-.016-.032-.016-.064-.016h-4.638a.09.09,0,0,1-.08-.1h0" transform="translate(-816.497 -340.572)"/><path class="c" d="M887.377,371.894V365.8a.539.539,0,0,0-.544-.544h-4.462a.342.342,0,0,0-.272.128l-1.008,1.215a.085.085,0,0,0,.016.128c.016.016.032.016.064.016h4.638a.1.1,0,0,1,.1.1v4.014a.1.1,0,0,1-.1.1h-3.2a.239.239,0,0,0-.144.064l-2.655,3.2a.083.083,0,0,0-.016.128c.016.032.048.032.08.032h1.343a.342.342,0,0,0,.272-.128l1.471-1.759a.121.121,0,0,1,.064-.032h3.807a.543.543,0,0,0,.544-.56h0" transform="translate(-874.854 -363.338)"/></g></svg>