<svg xmlns="http://www.w3.org/2000/svg" width="14.357" height="14.357" viewBox="0 0 14.357 14.357"><defs><style>.a{fill:#ffa300;}</style></defs><path class="a" d="M15.178,8a7.178,7.178,0,1,0,7.178,7.178A7.179,7.179,0,0,0,15.178,8Zm0,3.184A1.216,1.216,0,1,1,13.963,12.4,1.216,1.216,0,0,1,15.178,11.184ZM16.8,18.536a.347.347,0,0,1-.347.347H13.9a.347.347,0,0,1-.347-.347v-.695a.347.347,0,0,1,.347-.347h.347V15.641H13.9a.347.347,0,0,1-.347-.347V14.6a.347.347,0,0,1,.347-.347h1.852a.347.347,0,0,1,.347.347v2.894h.347a.347.347,0,0,1,.347.347Z" transform="translate(-8 -8)"/></svg>