<svg xmlns="http://www.w3.org/2000/svg" width="28" height="46.505" viewBox="0 0 28 46.505"><defs><style>.a{fill:#2dccd3;}.b{fill:#ffa300;}</style></defs><path class="a" d="M25,14H23.5V9.5a9.5,9.5,0,0,0-19,0V14H3a3,3,0,0,0-3,3V29a3,3,0,0,0,3,3H25a3,3,0,0,0,3-3V17A3,3,0,0,0,25,14Zm-6.5,0h-9V9.5a4.5,4.5,0,0,1,9,0Z"/><path class="b" d="M16.912,8a8.912,8.912,0,1,0,8.912,8.912A8.913,8.913,0,0,0,16.912,8Zm0,3.953A1.509,1.509,0,1,1,15.4,13.462,1.509,1.509,0,0,1,16.912,11.953Zm2.012,9.128a.431.431,0,0,1-.431.431H15.331a.431.431,0,0,1-.431-.431v-.862a.431.431,0,0,1,.431-.431h.431v-2.3h-.431a.431.431,0,0,1-.431-.431v-.862a.431.431,0,0,1,.431-.431h2.3a.431.431,0,0,1,.431.431v3.594h.431a.431.431,0,0,1,.431.431Z" transform="translate(-2.912 20.682)"/></svg>