<svg xmlns="http://www.w3.org/2000/svg" width="20.132" height="20.132" viewBox="0 0 20.132 20.132"><defs><style>.a{fill:#ffa300;}</style></defs><g transform="translate(0 0)"><path class="a" d="M3377.726-10227.79l4.241-.412.736-2.242v-9.936c0-2.482-1.12-2.073-1.12-2.073l-15.618.142-1.305,2.5v9.141l1.09,2.689,4.19.189.821.714v1.906l.844.316,2.889-2.464Z" transform="translate(-3363.618 10243.307)"/><path class="a" d="M17.616,0H2.517A2.519,2.519,0,0,0,0,2.517V13.841a2.519,2.519,0,0,0,2.517,2.517H6.291v3.3a.47.47,0,0,0,.472.472.451.451,0,0,0,.279-.094l4.911-3.68h5.662a2.519,2.519,0,0,0,2.517-2.517V2.517A2.519,2.519,0,0,0,17.616,0Zm.629,13.841a.631.631,0,0,1-.629.629H11.324l-.5.377L8.179,16.829V14.47H2.517a.631.631,0,0,1-.629-.629V2.517a.631.631,0,0,1,.629-.629h15.1a.631.631,0,0,1,.629.629Z" transform="translate(0 0)"/></g></svg>