<svg xmlns="http://www.w3.org/2000/svg" width="8.726" height="13.962" viewBox="0 0 8.726 13.962"><defs><style>.a{fill:#ffa300;}</style></defs><path class="a" d="M7.417,0H1.309A1.309,1.309,0,0,0,0,1.309V12.653a1.309,1.309,0,0,0,1.309,1.309H7.417a1.309,1.309,0,0,0,1.309-1.309V1.309A1.309,1.309,0,0,0,7.417,0ZM4.363,13.089a.873.873,0,1,1,.873-.873A.872.872,0,0,1,4.363,13.089Zm3.054-2.945a.328.328,0,0,1-.327.327H1.636a.328.328,0,0,1-.327-.327V1.636a.328.328,0,0,1,.327-.327H7.09a.328.328,0,0,1,.327.327Z"/></svg>