<svg xmlns="http://www.w3.org/2000/svg" width="53" height="53" viewBox="0 0 53 53"><defs><style>.a{fill:#2dccd3;}.b{fill:#fff;}</style></defs><g transform="translate(-273 -1027)"><path class="a" d="M4,0H53a0,0,0,0,1,0,0V53a0,0,0,0,1,0,0H4a4,4,0,0,1-4-4V4A4,4,0,0,1,4,0Z" transform="translate(273 1027)"/><path class="b" d="M35.855,103.994,43.5,96.346a1.344,1.344,0,0,1,1.906,0l1.271,1.271a1.344,1.344,0,0,1,0,1.906l-5.415,5.426,5.421,5.421a1.344,1.344,0,0,1,0,1.906l-1.271,1.276a1.344,1.344,0,0,1-1.906,0l-7.648-7.648A1.346,1.346,0,0,1,35.855,103.994Zm-10.8,1.912,7.648,7.648a1.344,1.344,0,0,0,1.906,0l1.271-1.271a1.344,1.344,0,0,0,0-1.906l-5.415-5.426,5.421-5.421a1.344,1.344,0,0,0,0-1.906l-1.271-1.276a1.344,1.344,0,0,0-1.906,0l-7.648,7.648A1.346,1.346,0,0,0,25.058,105.906Z" transform="translate(263.628 948.55)"/></g></svg>