<svg xmlns="http://www.w3.org/2000/svg" width="18" height="18" viewBox="0 0 18 18"><defs><style>.a{fill:#2dccd3;}</style></defs><path class="a" d="M17,8a9,9,0,1,0,9,9A9,9,0,0,0,17,8Zm0,16.258A7.258,7.258,0,1,1,24.258,17,7.254,7.254,0,0,1,17,24.258ZM20.892,15c0,2.433-2.628,2.471-2.628,3.37v.23a.436.436,0,0,1-.435.435H16.172a.436.436,0,0,1-.435-.435v-.314c0-1.3.983-1.816,1.727-2.232.637-.357,1.028-.6,1.028-1.073,0-.626-.8-1.041-1.444-1.041-.842,0-1.23.4-1.776,1.088a.436.436,0,0,1-.6.077l-1.01-.766a.436.436,0,0,1-.1-.594,4.079,4.079,0,0,1,3.65-1.966C18.991,11.774,20.892,13.164,20.892,15Zm-2.368,6.068A1.524,1.524,0,1,1,17,19.54,1.526,1.526,0,0,1,18.524,21.065Z" transform="translate(-8 -8)"/></svg>