<svg xmlns="http://www.w3.org/2000/svg" width="47" height="33" viewBox="0 0 47 33">
  <g id="Groupe_288" data-name="Groupe 288" transform="translate(-1600 -1824)">
    <rect id="Rectangle_44" data-name="Rectangle 44" width="47" height="33" rx="6" transform="translate(1600 1824)" fill="#00263f"/>
    <path id="FontAwsome_search_" data-name="FontAwsome (search)" d="M14.166,12.419l-2.8-2.8a.673.673,0,0,0-.477-.2h-.457a5.832,5.832,0,1,0-1.01,1.01v.457a.673.673,0,0,0,.2.477l2.8,2.8a.67.67,0,0,0,.951,0l.794-.794A.676.676,0,0,0,14.166,12.419ZM5.835,9.426A3.591,3.591,0,1,1,9.426,5.835,3.589,3.589,0,0,1,5.835,9.426Z" transform="translate(1616.817 1833.818)" fill="#f7f8f9"/>
  </g>
</svg>
