<svg xmlns="http://www.w3.org/2000/svg" width="20.995" height="16" viewBox="0 0 20.995 16"><defs><style>.a{fill:#002554;}</style></defs><path class="a" d="M20.7,72.687l-7,7A1,1,0,0,1,12,78.977v-4H6.332a1,1,0,0,1-1-1v-4a1,1,0,0,1,1-1H12v-4a1,1,0,0,1,1.708-.708l7,7A1.008,1.008,0,0,1,20.7,72.687ZM8,79.477V77.811a.5.5,0,0,0-.5-.5H4a1.332,1.332,0,0,1-1.333-1.333v-8A1.332,1.332,0,0,1,4,66.646H7.5a.5.5,0,0,0,.5-.5V64.48a.5.5,0,0,0-.5-.5H4a4,4,0,0,0-4,4v8a4,4,0,0,0,4,4H7.5A.5.5,0,0,0,8,79.477Z" transform="translate(0 -63.979)"/></svg>