<svg xmlns="http://www.w3.org/2000/svg" width="20.571" height="18" viewBox="0 0 20.571 18"><defs><style>.a{fill:#ffa300;}</style></defs><path class="a" d="M18.53,35.857H3.214a.643.643,0,1,1,0-1.286H18.643a.643.643,0,0,0,.643-.643A1.929,1.929,0,0,0,17.357,32H2.571A2.571,2.571,0,0,0,0,34.571V47.429A2.571,2.571,0,0,0,2.571,50H18.53a1.989,1.989,0,0,0,2.041-1.929V37.786A1.989,1.989,0,0,0,18.53,35.857Zm-1.816,8.357A1.286,1.286,0,1,1,18,42.929,1.286,1.286,0,0,1,16.714,44.214Z" transform="translate(0 -32)"/></svg>