<svg width="17" height="18" viewBox="0 0 17 18" fill="none" xmlns="http://www.w3.org/2000/svg">
<path d="M4.43645 18C3.24181 18 2.12293 17.4903 1.31541 16.6775C-0.250652 15.1016 -0.686748 12.351 1.50851 10.1423L10.515 1.07779C11.4278 0.159399 12.5892 -0.196017 13.7007 0.104295C14.7937 0.39818 15.6881 1.29912 15.981 2.39843C16.2785 3.51886 15.9265 4.68797 15.0145 5.60636L6.40073 14.2759C5.9092 14.7709 5.35299 15.0639 4.79493 15.1227C4.2415 15.1815 3.71394 15.0033 3.34436 14.6314C2.67544 13.9554 2.57935 12.6871 3.69361 11.5667L9.74351 5.47778C9.99205 5.22798 10.3949 5.22798 10.6434 5.47778C10.892 5.72758 10.892 6.13351 10.6434 6.38331L4.59259 12.4731C4.06965 12.9985 4.02161 13.5008 4.24427 13.7258C4.34221 13.8232 4.49004 13.8682 4.66096 13.8489C4.92244 13.8223 5.22087 13.6505 5.50082 13.3704L14.1146 4.70174C14.7059 4.10663 14.9323 3.40682 14.7521 2.7318C14.6621 2.40171 14.4878 2.10034 14.2461 1.8569C14.0044 1.61345 13.7036 1.43619 13.3727 1.34228C12.7019 1.16136 12.0053 1.39004 11.414 1.98515L2.4075 11.0496C0.729639 12.7386 1.13155 14.6828 2.2144 15.7729C3.29817 16.863 5.22826 17.269 6.90704 15.5782L15.9135 6.51372C15.9723 6.45436 16.0423 6.4072 16.1195 6.37502C16.1968 6.34283 16.2797 6.32626 16.3635 6.32626C16.4472 6.32626 16.5302 6.34283 16.6074 6.37502C16.6847 6.4072 16.7547 6.45436 16.8134 6.51372C16.933 6.63464 17 6.7974 17 6.96695C17 7.13649 16.933 7.29926 16.8134 7.42017L7.80695 16.4847C6.74535 17.5518 5.55625 18 4.43645 18Z" fill="white"/>
</svg>
