<svg width="20" height="19" viewBox="0 0 20 19" fill="none" xmlns="http://www.w3.org/2000/svg">
<path d="M18.4267 8.095L1.42674 0.0949962C1.25557 0.0140123 1.06492 -0.0166567 0.876986 0.00656362C0.689058 0.029784 0.511598 0.105937 0.365291 0.226148C0.218984 0.346359 0.109855 0.505676 0.0506232 0.685531C-0.00860899 0.865386 -0.0155049 1.05837 0.0307394 1.242L1.96974 9L0.0307394 16.758C-0.0159376 16.9417 -0.00934325 17.1349 0.0497511 17.315C0.108845 17.495 0.217996 17.6546 0.364436 17.7749C0.510875 17.8952 0.688549 17.9713 0.876672 17.9944C1.0648 18.0174 1.25559 17.9864 1.42674 17.905L18.4267 9.905C18.5985 9.82424 18.7438 9.69625 18.8455 9.53599C18.9473 9.37574 19.0013 9.18983 19.0013 9C19.0013 8.81017 18.9473 8.62426 18.8455 8.464C18.7438 8.30374 18.5985 8.17575 18.4267 8.095ZM2.48174 15.197L3.32074 11.84L9.00074 9L3.32074 6.16L2.48174 2.803L15.6517 9L2.48174 15.197Z" fill="white"/>
</svg>
