<svg width="481" height="387" viewBox="0 0 481 387" fill="none" xmlns="http://www.w3.org/2000/svg">
<path opacity="0.3" d="M57.3433 295.155H51.6304V311H49.2988V295.155H43.5981V293.227H57.3433V295.155ZM63.3843 299.391C64.3853 298.162 65.6873 297.548 67.2905 297.548C70.0819 297.548 71.4897 299.123 71.5142 302.272V311H69.2559V302.26C69.2477 301.308 69.028 300.604 68.5967 300.148C68.1735 299.692 67.5103 299.464 66.6069 299.464C65.8745 299.464 65.2316 299.66 64.6782 300.05C64.1248 300.441 63.6935 300.954 63.3843 301.588V311H61.126V292.25H63.3843V299.391ZM78.8491 311H76.5908V297.792H78.8491V311ZM76.4077 294.289C76.4077 293.922 76.5176 293.613 76.7373 293.361C76.9652 293.109 77.2988 292.982 77.7383 292.982C78.1777 292.982 78.5114 293.109 78.7393 293.361C78.9671 293.613 79.0811 293.922 79.0811 294.289C79.0811 294.655 78.9671 294.96 78.7393 295.204C78.5114 295.448 78.1777 295.57 77.7383 295.57C77.2988 295.57 76.9652 295.448 76.7373 295.204C76.5176 294.96 76.4077 294.655 76.4077 294.289ZM91.665 307.497C91.665 306.886 91.4331 306.414 90.9692 306.081C90.5135 305.739 89.7119 305.446 88.5645 305.202C87.4251 304.958 86.5177 304.665 85.8423 304.323C85.175 303.981 84.6785 303.574 84.353 303.102C84.0356 302.63 83.877 302.069 83.877 301.417C83.877 300.335 84.3327 299.42 85.2441 298.671C86.1637 297.922 87.3356 297.548 88.7598 297.548C90.2572 297.548 91.4697 297.934 92.3975 298.708C93.3333 299.481 93.8013 300.469 93.8013 301.674H91.5308C91.5308 301.055 91.2663 300.522 90.7373 300.075C90.2165 299.627 89.5573 299.403 88.7598 299.403C87.9378 299.403 87.2949 299.582 86.8311 299.94C86.3672 300.299 86.1353 300.766 86.1353 301.344C86.1353 301.889 86.3509 302.3 86.7822 302.577C87.2135 302.854 87.9907 303.118 89.1138 303.371C90.245 303.623 91.1605 303.924 91.8604 304.274C92.5602 304.624 93.077 305.047 93.4106 305.543C93.7524 306.032 93.9233 306.63 93.9233 307.338C93.9233 308.518 93.4513 309.466 92.5073 310.182C91.5633 310.89 90.3385 311.244 88.833 311.244C87.7751 311.244 86.8392 311.057 86.0254 310.683C85.2116 310.308 84.5728 309.787 84.1089 309.12C83.6532 308.445 83.4253 307.716 83.4253 306.935H85.6836C85.7243 307.692 86.0254 308.294 86.5869 308.742C87.1566 309.181 87.9053 309.401 88.833 309.401C89.6875 309.401 90.3711 309.23 90.8838 308.888C91.4046 308.538 91.665 308.074 91.665 307.497ZM117.224 304.542C117.224 306.553 116.764 308.172 115.844 309.401C114.925 310.63 113.68 311.244 112.109 311.244C110.506 311.244 109.244 310.736 108.325 309.718V316.078H106.066V297.792H108.129L108.239 299.257C109.159 298.118 110.437 297.548 112.072 297.548C113.659 297.548 114.912 298.146 115.832 299.342C116.76 300.539 117.224 302.203 117.224 304.335V304.542ZM114.965 304.286C114.965 302.797 114.648 301.621 114.013 300.758C113.378 299.896 112.508 299.464 111.401 299.464C110.034 299.464 109.008 300.071 108.325 301.283V307.594C109 308.799 110.034 309.401 111.425 309.401C112.508 309.401 113.366 308.974 114.001 308.119C114.644 307.257 114.965 305.979 114.965 304.286ZM129.759 311C129.629 310.74 129.523 310.276 129.441 309.608C128.392 310.699 127.138 311.244 125.682 311.244C124.38 311.244 123.309 310.878 122.471 310.146C121.641 309.405 121.226 308.469 121.226 307.338C121.226 305.963 121.747 304.896 122.789 304.14C123.838 303.375 125.311 302.992 127.208 302.992H129.405V301.955C129.405 301.165 129.169 300.539 128.697 300.075C128.225 299.603 127.529 299.367 126.609 299.367C125.804 299.367 125.128 299.57 124.583 299.977C124.038 300.384 123.765 300.876 123.765 301.454H121.495C121.495 300.795 121.727 300.16 122.19 299.55C122.662 298.931 123.297 298.443 124.095 298.085C124.9 297.727 125.783 297.548 126.744 297.548C128.265 297.548 129.458 297.93 130.32 298.695C131.183 299.452 131.631 300.498 131.663 301.833V307.912C131.663 309.124 131.818 310.089 132.127 310.805V311H129.759ZM126.011 309.279C126.719 309.279 127.391 309.096 128.025 308.729C128.66 308.363 129.12 307.887 129.405 307.301V304.591H127.635C124.868 304.591 123.484 305.401 123.484 307.021C123.484 307.729 123.72 308.282 124.192 308.681C124.664 309.079 125.271 309.279 126.011 309.279ZM136.166 304.286C136.166 302.227 136.642 300.591 137.594 299.379C138.546 298.158 139.808 297.548 141.378 297.548C142.99 297.548 144.247 298.118 145.15 299.257L145.26 297.792H147.323V310.683C147.323 312.392 146.815 313.738 145.797 314.723C144.788 315.708 143.429 316.2 141.72 316.2C140.768 316.2 139.836 315.997 138.925 315.59C138.013 315.183 137.318 314.625 136.837 313.917L138.009 312.562C138.978 313.759 140.162 314.357 141.562 314.357C142.66 314.357 143.515 314.048 144.125 313.429C144.743 312.811 145.053 311.94 145.053 310.817V309.682C144.149 310.723 142.917 311.244 141.354 311.244C139.808 311.244 138.555 310.622 137.594 309.376C136.642 308.131 136.166 306.435 136.166 304.286ZM138.437 304.542C138.437 306.032 138.742 307.204 139.352 308.058C139.962 308.904 140.817 309.328 141.916 309.328C143.34 309.328 144.385 308.681 145.053 307.387V301.356C144.361 300.095 143.323 299.464 141.94 299.464C140.841 299.464 139.983 299.892 139.364 300.746C138.746 301.601 138.437 302.866 138.437 304.542ZM157.722 311.244C155.932 311.244 154.475 310.658 153.352 309.486C152.229 308.306 151.667 306.732 151.667 304.762V304.347C151.667 303.037 151.916 301.869 152.412 300.844C152.917 299.81 153.617 299.005 154.512 298.427C155.415 297.841 156.392 297.548 157.441 297.548C159.159 297.548 160.493 298.113 161.445 299.245C162.397 300.376 162.874 301.995 162.874 304.103V305.043H153.926C153.958 306.345 154.337 307.399 155.061 308.205C155.793 309.002 156.721 309.401 157.844 309.401C158.642 309.401 159.317 309.238 159.871 308.913C160.424 308.587 160.908 308.156 161.323 307.619L162.703 308.693C161.596 310.394 159.936 311.244 157.722 311.244ZM157.441 299.403C156.53 299.403 155.765 299.737 155.146 300.404C154.528 301.063 154.146 301.991 153.999 303.188H160.615V303.017C160.55 301.869 160.241 300.982 159.688 300.355C159.134 299.721 158.385 299.403 157.441 299.403ZM177.153 311H174.895V297.792H177.153V311ZM174.711 294.289C174.711 293.922 174.821 293.613 175.041 293.361C175.269 293.109 175.603 292.982 176.042 292.982C176.481 292.982 176.815 293.109 177.043 293.361C177.271 293.613 177.385 293.922 177.385 294.289C177.385 294.655 177.271 294.96 177.043 295.204C176.815 295.448 176.481 295.57 176.042 295.57C175.603 295.57 175.269 295.448 175.041 295.204C174.821 294.96 174.711 294.655 174.711 294.289ZM189.969 307.497C189.969 306.886 189.737 306.414 189.273 306.081C188.817 305.739 188.016 305.446 186.868 305.202C185.729 304.958 184.821 304.665 184.146 304.323C183.479 303.981 182.982 303.574 182.657 303.102C182.339 302.63 182.181 302.069 182.181 301.417C182.181 300.335 182.636 299.42 183.548 298.671C184.467 297.922 185.639 297.548 187.063 297.548C188.561 297.548 189.773 297.934 190.701 298.708C191.637 299.481 192.105 300.469 192.105 301.674H189.834C189.834 301.055 189.57 300.522 189.041 300.075C188.52 299.627 187.861 299.403 187.063 299.403C186.242 299.403 185.599 299.582 185.135 299.94C184.671 300.299 184.439 300.766 184.439 301.344C184.439 301.889 184.655 302.3 185.086 302.577C185.517 302.854 186.294 303.118 187.417 303.371C188.549 303.623 189.464 303.924 190.164 304.274C190.864 304.624 191.381 305.047 191.714 305.543C192.056 306.032 192.227 306.63 192.227 307.338C192.227 308.518 191.755 309.466 190.811 310.182C189.867 310.89 188.642 311.244 187.137 311.244C186.079 311.244 185.143 311.057 184.329 310.683C183.515 310.308 182.876 309.787 182.413 309.12C181.957 308.445 181.729 307.716 181.729 306.935H183.987C184.028 307.692 184.329 308.294 184.891 308.742C185.46 309.181 186.209 309.401 187.137 309.401C187.991 309.401 188.675 309.23 189.188 308.888C189.708 308.538 189.969 308.074 189.969 307.497ZM212.524 309.694C211.646 310.727 210.356 311.244 208.655 311.244C207.247 311.244 206.173 310.837 205.432 310.023C204.7 309.201 204.329 307.989 204.321 306.386V297.792H206.58V306.325C206.58 308.327 207.393 309.328 209.021 309.328C210.746 309.328 211.894 308.685 212.463 307.399V297.792H214.722V311H212.573L212.524 309.694ZM221.8 297.792L221.874 299.452C222.883 298.183 224.201 297.548 225.829 297.548C228.62 297.548 230.028 299.123 230.052 302.272V311H227.794V302.26C227.786 301.308 227.566 300.604 227.135 300.148C226.712 299.692 226.048 299.464 225.145 299.464C224.413 299.464 223.77 299.66 223.216 300.05C222.663 300.441 222.232 300.954 221.922 301.588V311H219.664V297.792H221.8ZM234.409 304.286C234.409 302.26 234.889 300.632 235.849 299.403C236.809 298.166 238.067 297.548 239.621 297.548C241.167 297.548 242.392 298.077 243.295 299.135V292.25H245.554V311H243.479L243.369 309.584C242.465 310.691 241.208 311.244 239.597 311.244C238.067 311.244 236.818 310.618 235.849 309.364C234.889 308.111 234.409 306.475 234.409 304.457V304.286ZM236.667 304.542C236.667 306.04 236.976 307.212 237.595 308.058C238.213 308.904 239.068 309.328 240.158 309.328C241.59 309.328 242.636 308.685 243.295 307.399V301.332C242.62 300.087 241.582 299.464 240.183 299.464C239.076 299.464 238.213 299.892 237.595 300.746C236.976 301.601 236.667 302.866 236.667 304.542ZM256.05 311.244C254.26 311.244 252.803 310.658 251.68 309.486C250.557 308.306 249.996 306.732 249.996 304.762V304.347C249.996 303.037 250.244 301.869 250.74 300.844C251.245 299.81 251.945 299.005 252.84 298.427C253.743 297.841 254.72 297.548 255.77 297.548C257.487 297.548 258.821 298.113 259.773 299.245C260.726 300.376 261.202 301.995 261.202 304.103V305.043H252.254C252.286 306.345 252.665 307.399 253.389 308.205C254.122 309.002 255.049 309.401 256.172 309.401C256.97 309.401 257.645 309.238 258.199 308.913C258.752 308.587 259.236 308.156 259.651 307.619L261.031 308.693C259.924 310.394 258.264 311.244 256.05 311.244ZM255.77 299.403C254.858 299.403 254.093 299.737 253.475 300.404C252.856 301.063 252.474 301.991 252.327 303.188H258.943V303.017C258.878 301.869 258.569 300.982 258.016 300.355C257.462 299.721 256.714 299.403 255.77 299.403ZM271.71 299.818C271.369 299.761 270.998 299.733 270.6 299.733C269.118 299.733 268.113 300.364 267.584 301.625V311H265.326V297.792H267.523L267.56 299.318C268.301 298.138 269.35 297.548 270.709 297.548C271.149 297.548 271.483 297.605 271.71 297.719V299.818ZM288.297 309.401C289.103 309.401 289.806 309.157 290.409 308.668C291.011 308.18 291.345 307.57 291.41 306.837H293.546C293.505 307.594 293.245 308.314 292.765 308.998C292.285 309.682 291.642 310.227 290.836 310.634C290.038 311.041 289.192 311.244 288.297 311.244C286.498 311.244 285.066 310.646 284 309.45C282.942 308.245 282.413 306.601 282.413 304.518V304.14C282.413 302.854 282.649 301.71 283.121 300.709C283.593 299.708 284.269 298.931 285.147 298.378C286.035 297.825 287.08 297.548 288.285 297.548C289.766 297.548 290.995 297.991 291.971 298.878C292.956 299.765 293.481 300.917 293.546 302.333H291.41C291.345 301.479 291.019 300.779 290.433 300.233C289.855 299.68 289.139 299.403 288.285 299.403C287.137 299.403 286.246 299.818 285.611 300.648C284.985 301.47 284.671 302.663 284.671 304.225V304.652C284.671 306.174 284.985 307.346 285.611 308.168C286.238 308.99 287.133 309.401 288.297 309.401ZM296.987 304.274C296.987 302.98 297.239 301.816 297.744 300.783C298.256 299.749 298.964 298.952 299.868 298.39C300.779 297.829 301.817 297.548 302.98 297.548C304.779 297.548 306.232 298.17 307.338 299.416C308.453 300.661 309.011 302.317 309.011 304.384V304.542C309.011 305.828 308.763 306.984 308.266 308.009C307.778 309.027 307.074 309.82 306.154 310.39C305.243 310.959 304.193 311.244 303.005 311.244C301.215 311.244 299.762 310.622 298.647 309.376C297.54 308.131 296.987 306.483 296.987 304.433V304.274ZM299.257 304.542C299.257 306.007 299.595 307.183 300.271 308.07C300.954 308.957 301.866 309.401 303.005 309.401C304.152 309.401 305.064 308.953 305.739 308.058C306.415 307.155 306.752 305.893 306.752 304.274C306.752 302.825 306.407 301.653 305.715 300.758C305.031 299.855 304.12 299.403 302.98 299.403C301.866 299.403 300.966 299.847 300.283 300.734C299.599 301.621 299.257 302.89 299.257 304.542ZM315.479 297.792L315.552 299.452C316.561 298.183 317.88 297.548 319.507 297.548C322.299 297.548 323.707 299.123 323.731 302.272V311H321.473V302.26C321.465 301.308 321.245 300.604 320.813 300.148C320.39 299.692 319.727 299.464 318.824 299.464C318.091 299.464 317.448 299.66 316.895 300.05C316.342 300.441 315.91 300.954 315.601 301.588V311H313.343V297.792H315.479ZM336.327 307.497C336.327 306.886 336.095 306.414 335.631 306.081C335.176 305.739 334.374 305.446 333.227 305.202C332.087 304.958 331.18 304.665 330.504 304.323C329.837 303.981 329.341 303.574 329.015 303.102C328.698 302.63 328.539 302.069 328.539 301.417C328.539 300.335 328.995 299.42 329.906 298.671C330.826 297.922 331.998 297.548 333.422 297.548C334.919 297.548 336.132 297.934 337.06 298.708C337.995 299.481 338.463 300.469 338.463 301.674H336.193C336.193 301.055 335.928 300.522 335.399 300.075C334.879 299.627 334.219 299.403 333.422 299.403C332.6 299.403 331.957 299.582 331.493 299.94C331.029 300.299 330.797 300.766 330.797 301.344C330.797 301.889 331.013 302.3 331.444 302.577C331.876 302.854 332.653 303.118 333.776 303.371C334.907 303.623 335.823 303.924 336.522 304.274C337.222 304.624 337.739 305.047 338.073 305.543C338.415 306.032 338.585 306.63 338.585 307.338C338.585 308.518 338.113 309.466 337.169 310.182C336.225 310.89 335.001 311.244 333.495 311.244C332.437 311.244 331.501 311.057 330.688 310.683C329.874 310.308 329.235 309.787 328.771 309.12C328.315 308.445 328.087 307.716 328.087 306.935H330.346C330.386 307.692 330.688 308.294 331.249 308.742C331.819 309.181 332.567 309.401 333.495 309.401C334.35 309.401 335.033 309.23 335.546 308.888C336.067 308.538 336.327 308.074 336.327 307.497ZM346.091 294.594V297.792H348.557V299.538H346.091V307.729C346.091 308.257 346.201 308.656 346.421 308.925C346.641 309.185 347.015 309.315 347.544 309.315C347.804 309.315 348.162 309.267 348.618 309.169V311C348.024 311.163 347.446 311.244 346.885 311.244C345.876 311.244 345.115 310.939 344.602 310.329C344.089 309.718 343.833 308.852 343.833 307.729V299.538H341.428V297.792H343.833V294.594H346.091ZM359.09 299.818C358.749 299.761 358.378 299.733 357.979 299.733C356.498 299.733 355.493 300.364 354.964 301.625V311H352.706V297.792H354.903L354.94 299.318C355.681 298.138 356.73 297.548 358.089 297.548C358.529 297.548 358.862 297.605 359.09 297.719V299.818ZM370.832 309.694C369.953 310.727 368.663 311.244 366.962 311.244C365.555 311.244 364.48 310.837 363.74 310.023C363.007 309.201 362.637 307.989 362.629 306.386V297.792H364.887V306.325C364.887 308.327 365.701 309.328 367.329 309.328C369.054 309.328 370.201 308.685 370.771 307.399V297.792H373.029V311H370.881L370.832 309.694ZM383.27 309.401C384.075 309.401 384.779 309.157 385.381 308.668C385.984 308.18 386.317 307.57 386.382 306.837H388.519C388.478 307.594 388.217 308.314 387.737 308.998C387.257 309.682 386.614 310.227 385.809 310.634C385.011 311.041 384.165 311.244 383.27 311.244C381.471 311.244 380.039 310.646 378.973 309.45C377.915 308.245 377.386 306.601 377.386 304.518V304.14C377.386 302.854 377.622 301.71 378.094 300.709C378.566 299.708 379.241 298.931 380.12 298.378C381.007 297.825 382.053 297.548 383.257 297.548C384.738 297.548 385.967 297.991 386.944 298.878C387.929 299.765 388.453 300.917 388.519 302.333H386.382C386.317 301.479 385.992 300.779 385.406 300.233C384.828 299.68 384.112 299.403 383.257 299.403C382.11 299.403 381.219 299.818 380.584 300.648C379.957 301.47 379.644 302.663 379.644 304.225V304.652C379.644 306.174 379.957 307.346 380.584 308.168C381.211 308.99 382.106 309.401 383.27 309.401ZM395.622 294.594V297.792H398.087V299.538H395.622V307.729C395.622 308.257 395.731 308.656 395.951 308.925C396.171 309.185 396.545 309.315 397.074 309.315C397.335 309.315 397.693 309.267 398.148 309.169V311C397.554 311.163 396.977 311.244 396.415 311.244C395.406 311.244 394.645 310.939 394.132 310.329C393.62 309.718 393.363 308.852 393.363 307.729V299.538H390.958V297.792H393.363V294.594H395.622ZM404.69 311H402.432V297.792H404.69V311ZM402.249 294.289C402.249 293.922 402.358 293.613 402.578 293.361C402.806 293.109 403.14 292.982 403.579 292.982C404.019 292.982 404.352 293.109 404.58 293.361C404.808 293.613 404.922 293.922 404.922 294.289C404.922 294.655 404.808 294.96 404.58 295.204C404.352 295.448 404.019 295.57 403.579 295.57C403.14 295.57 402.806 295.448 402.578 295.204C402.358 294.96 402.249 294.655 402.249 294.289ZM409.217 304.274C409.217 302.98 409.47 301.816 409.974 300.783C410.487 299.749 411.195 298.952 412.098 298.39C413.01 297.829 414.047 297.548 415.211 297.548C417.009 297.548 418.462 298.17 419.569 299.416C420.684 300.661 421.241 302.317 421.241 304.384V304.542C421.241 305.828 420.993 306.984 420.497 308.009C420.008 309.027 419.304 309.82 418.385 310.39C417.473 310.959 416.424 311.244 415.235 311.244C413.445 311.244 411.992 310.622 410.877 309.376C409.771 308.131 409.217 306.483 409.217 304.433V304.274ZM411.488 304.542C411.488 306.007 411.826 307.183 412.501 308.07C413.185 308.957 414.096 309.401 415.235 309.401C416.383 309.401 417.294 308.953 417.97 308.058C418.645 307.155 418.983 305.893 418.983 304.274C418.983 302.825 418.637 301.653 417.945 300.758C417.262 299.855 416.35 299.403 415.211 299.403C414.096 299.403 413.197 299.847 412.513 300.734C411.83 301.621 411.488 302.89 411.488 304.542ZM427.709 297.792L427.783 299.452C428.792 298.183 430.11 297.548 431.738 297.548C434.529 297.548 435.937 299.123 435.961 302.272V311H433.703V302.26C433.695 301.308 433.475 300.604 433.044 300.148C432.621 299.692 431.958 299.464 431.054 299.464C430.322 299.464 429.679 299.66 429.125 300.05C428.572 300.441 428.141 300.954 427.832 301.588V311H425.573V297.792H427.709Z" fill="#052B43"/>
<path opacity="0.2" d="M142.717 342.518L142.99 344.393L143.391 342.703L146.203 332.781H147.785L150.529 342.703L150.92 344.422L151.223 342.508L153.43 332.781H155.314L151.867 347H150.158L147.229 336.639L147.004 335.555L146.779 336.639L143.742 347H142.033L138.596 332.781H140.471L142.717 342.518ZM162.393 347.195C160.961 347.195 159.796 346.727 158.897 345.789C157.999 344.845 157.55 343.585 157.55 342.01V341.678C157.55 340.63 157.748 339.695 158.145 338.875C158.549 338.048 159.109 337.404 159.825 336.941C160.548 336.473 161.329 336.238 162.169 336.238C163.542 336.238 164.61 336.691 165.372 337.596C166.134 338.501 166.514 339.796 166.514 341.482V342.234H159.356C159.382 343.276 159.685 344.119 160.264 344.764C160.85 345.402 161.593 345.721 162.491 345.721C163.129 345.721 163.669 345.59 164.112 345.33C164.555 345.07 164.942 344.725 165.274 344.295L166.378 345.154C165.492 346.515 164.164 347.195 162.393 347.195ZM162.169 337.723C161.44 337.723 160.828 337.99 160.333 338.523C159.838 339.051 159.532 339.793 159.415 340.75H164.708V340.613C164.656 339.695 164.408 338.986 163.966 338.484C163.523 337.977 162.924 337.723 162.169 337.723ZM185.33 344.51L187.362 336.434H189.168L186.092 347H184.627L182.059 338.992L179.559 347H178.094L175.028 336.434H176.825L178.905 344.344L181.366 336.434H182.821L185.33 344.51ZM194.177 347H192.37V336.434H194.177V347ZM192.224 333.631C192.224 333.338 192.312 333.09 192.487 332.889C192.67 332.687 192.937 332.586 193.288 332.586C193.64 332.586 193.907 332.687 194.089 332.889C194.271 333.09 194.362 333.338 194.362 333.631C194.362 333.924 194.271 334.168 194.089 334.363C193.907 334.559 193.64 334.656 193.288 334.656C192.937 334.656 192.67 334.559 192.487 334.363C192.312 334.168 192.224 333.924 192.224 333.631ZM200.24 347H198.434V332H200.24V347ZM206.304 347H204.497V332H206.304V347ZM217.17 347V337.83H215.5V336.434H217.17V335.535C217.17 334.357 217.506 333.439 218.176 332.781C218.853 332.124 219.807 331.795 221.037 331.795C221.767 331.795 222.688 331.993 223.801 332.391L223.498 333.914C222.685 333.589 221.91 333.426 221.174 333.426C220.399 333.426 219.84 333.602 219.495 333.953C219.156 334.298 218.987 334.819 218.987 335.516V336.434H221.145V337.83H218.987V347H217.17ZM224.7 347H222.883V336.434H224.7V347ZM230.548 336.434L230.607 337.762C231.414 336.746 232.469 336.238 233.771 336.238C236.004 336.238 237.13 337.498 237.15 340.018V347H235.343V340.008C235.336 339.246 235.161 338.683 234.816 338.318C234.477 337.954 233.946 337.771 233.224 337.771C232.638 337.771 232.124 337.928 231.681 338.24C231.238 338.553 230.893 338.963 230.646 339.471V347H228.839V336.434H230.548ZM243.037 347H241.23V336.434H243.037V347ZM241.084 333.631C241.084 333.338 241.172 333.09 241.348 332.889C241.53 332.687 241.797 332.586 242.148 332.586C242.5 332.586 242.767 332.687 242.949 332.889C243.132 333.09 243.223 333.338 243.223 333.631C243.223 333.924 243.132 334.168 242.949 334.363C242.767 334.559 242.5 334.656 242.148 334.656C241.797 334.656 241.53 334.559 241.348 334.363C241.172 334.168 241.084 333.924 241.084 333.631ZM253.29 344.197C253.29 343.709 253.104 343.331 252.733 343.064C252.369 342.791 251.727 342.557 250.809 342.361C249.898 342.166 249.172 341.932 248.632 341.658C248.098 341.385 247.701 341.059 247.44 340.682C247.186 340.304 247.059 339.855 247.059 339.334C247.059 338.468 247.424 337.736 248.153 337.137C248.889 336.538 249.826 336.238 250.966 336.238C252.164 336.238 253.134 336.548 253.876 337.166C254.624 337.785 254.999 338.576 254.999 339.539H253.182C253.182 339.044 252.971 338.618 252.548 338.26C252.131 337.902 251.604 337.723 250.966 337.723C250.308 337.723 249.794 337.866 249.423 338.152C249.052 338.439 248.866 338.813 248.866 339.275C248.866 339.712 249.039 340.04 249.384 340.262C249.729 340.483 250.35 340.695 251.249 340.896C252.154 341.098 252.886 341.339 253.446 341.619C254.006 341.899 254.419 342.238 254.686 342.635C254.96 343.025 255.096 343.504 255.096 344.07C255.096 345.014 254.719 345.773 253.964 346.346C253.208 346.912 252.229 347.195 251.024 347.195C250.178 347.195 249.429 347.046 248.778 346.746C248.127 346.447 247.616 346.03 247.245 345.496C246.88 344.956 246.698 344.373 246.698 343.748H248.505C248.537 344.354 248.778 344.835 249.227 345.193C249.683 345.545 250.282 345.721 251.024 345.721C251.708 345.721 252.255 345.584 252.665 345.311C253.082 345.031 253.29 344.66 253.29 344.197ZM260.457 337.713C261.257 336.73 262.299 336.238 263.582 336.238C265.815 336.238 266.941 337.498 266.961 340.018V347H265.154V340.008C265.147 339.246 264.972 338.683 264.627 338.318C264.288 337.954 263.757 337.771 263.035 337.771C262.449 337.771 261.935 337.928 261.492 338.24C261.049 338.553 260.704 338.963 260.457 339.471V347H258.65V332H260.457V337.713ZM278.989 347H277.183V336.434H278.989V347ZM277.036 333.631C277.036 333.338 277.124 333.09 277.3 332.889C277.482 332.687 277.749 332.586 278.101 332.586C278.452 332.586 278.719 332.687 278.902 332.889C279.084 333.09 279.175 333.338 279.175 333.631C279.175 333.924 279.084 334.168 278.902 334.363C278.719 334.559 278.452 334.656 278.101 334.656C277.749 334.656 277.482 334.559 277.3 334.363C277.124 334.168 277.036 333.924 277.036 333.631ZM285.541 333.875V336.434H287.514V337.83H285.541V344.383C285.541 344.806 285.629 345.125 285.805 345.34C285.98 345.548 286.28 345.652 286.703 345.652C286.911 345.652 287.198 345.613 287.562 345.535V347C287.087 347.13 286.625 347.195 286.176 347.195C285.368 347.195 284.76 346.951 284.35 346.463C283.939 345.975 283.734 345.281 283.734 344.383V337.83H281.811V336.434H283.734V333.875H285.541ZM303.146 344.197C303.146 343.709 302.961 343.331 302.589 343.064C302.225 342.791 301.584 342.557 300.666 342.361C299.754 342.166 299.028 341.932 298.488 341.658C297.954 341.385 297.557 341.059 297.296 340.682C297.043 340.304 296.916 339.855 296.916 339.334C296.916 338.468 297.28 337.736 298.009 337.137C298.745 336.538 299.683 336.238 300.822 336.238C302.02 336.238 302.99 336.548 303.732 337.166C304.481 337.785 304.855 338.576 304.855 339.539H303.039C303.039 339.044 302.827 338.618 302.404 338.26C301.987 337.902 301.46 337.723 300.822 337.723C300.164 337.723 299.65 337.866 299.279 338.152C298.908 338.439 298.722 338.813 298.722 339.275C298.722 339.712 298.895 340.04 299.24 340.262C299.585 340.483 300.207 340.695 301.105 340.896C302.01 341.098 302.742 341.339 303.302 341.619C303.862 341.899 304.276 342.238 304.543 342.635C304.816 343.025 304.953 343.504 304.953 344.07C304.953 345.014 304.575 345.773 303.82 346.346C303.065 346.912 302.085 347.195 300.88 347.195C300.034 347.195 299.285 347.046 298.634 346.746C297.983 346.447 297.472 346.03 297.101 345.496C296.737 344.956 296.554 344.373 296.554 343.748H298.361C298.393 344.354 298.634 344.835 299.084 345.193C299.539 345.545 300.138 345.721 300.88 345.721C301.564 345.721 302.111 345.584 302.521 345.311C302.938 345.031 303.146 344.66 303.146 344.197ZM308.028 341.619C308.028 340.584 308.23 339.653 308.633 338.826C309.043 337.999 309.61 337.361 310.332 336.912C311.062 336.463 311.892 336.238 312.823 336.238C314.261 336.238 315.424 336.736 316.309 337.732C317.201 338.729 317.647 340.053 317.647 341.707V341.834C317.647 342.863 317.448 343.787 317.051 344.607C316.661 345.421 316.097 346.056 315.362 346.512C314.633 346.967 313.793 347.195 312.842 347.195C311.41 347.195 310.248 346.697 309.356 345.701C308.47 344.705 308.028 343.387 308.028 341.746V341.619ZM309.844 341.834C309.844 343.006 310.114 343.947 310.655 344.656C311.202 345.366 311.931 345.721 312.842 345.721C313.76 345.721 314.489 345.363 315.03 344.646C315.57 343.924 315.84 342.915 315.84 341.619C315.84 340.46 315.564 339.523 315.01 338.807C314.463 338.084 313.734 337.723 312.823 337.723C311.931 337.723 311.211 338.077 310.664 338.787C310.118 339.497 309.844 340.512 309.844 341.834ZM320.634 341.619C320.634 340.584 320.836 339.653 321.239 338.826C321.65 337.999 322.216 337.361 322.939 336.912C323.668 336.463 324.498 336.238 325.429 336.238C326.868 336.238 328.03 336.736 328.915 337.732C329.807 338.729 330.253 340.053 330.253 341.707V341.834C330.253 342.863 330.055 343.787 329.657 344.607C329.267 345.421 328.704 346.056 327.968 346.512C327.239 346.967 326.399 347.195 325.448 347.195C324.016 347.195 322.854 346.697 321.962 345.701C321.077 344.705 320.634 343.387 320.634 341.746V341.619ZM322.45 341.834C322.45 343.006 322.721 343.947 323.261 344.656C323.808 345.366 324.537 345.721 325.448 345.721C326.366 345.721 327.096 345.363 327.636 344.646C328.176 343.924 328.446 342.915 328.446 341.619C328.446 340.46 328.17 339.523 327.616 338.807C327.07 338.084 326.34 337.723 325.429 337.723C324.537 337.723 323.818 338.077 323.271 338.787C322.724 339.497 322.45 340.512 322.45 341.834ZM335.428 336.434L335.486 337.762C336.294 336.746 337.348 336.238 338.65 336.238C340.883 336.238 342.01 337.498 342.029 340.018V347H340.223V340.008C340.216 339.246 340.04 338.683 339.695 338.318C339.357 337.954 338.826 337.771 338.104 337.771C337.518 337.771 337.003 337.928 336.561 338.24C336.118 338.553 335.773 338.963 335.525 339.471V347H333.719V336.434H335.428Z" fill="#052B43"/>
<rect x="102" y="55" width="282" height="189" rx="10" fill="white"/>
<rect opacity="0.3" x="127" y="80" width="173" height="15" fill="#052B43"/>
<rect opacity="0.1" x="127" y="115" width="232" height="7" fill="#052B43"/>
<rect opacity="0.1" x="127" y="132" width="225" height="7" fill="#052B43"/>
<rect opacity="0.1" x="127" y="149" width="206" height="7" fill="#052B43"/>
<rect opacity="0.1" x="127" y="166" width="220" height="7" fill="#052B43"/>
<rect opacity="0.1" x="127" y="183" width="206" height="7" fill="#052B43"/>
<rect opacity="0.1" x="127" y="200" width="194" height="7" fill="#052B43"/>
<rect opacity="0.1" x="127" y="217" width="126" height="7" fill="#052B43"/>
<g filter="url(#filter0_b)">
<path d="M322 52L326.623 52.3801L326.243 47.7574L330.865 48.1375L330.485 43.5147L335.108 43.8949L334.728 39.2721L339.351 39.6522L338.971 35.0294L406.853 102.912L401.997 102.163L402.61 107.154L397.755 106.406L398.368 111.397L393.512 110.649L394.125 115.64L389.269 114.891L389.882 119.882L322 52Z" fill="#1E1E1E" fill-opacity="0.05"/>
</g>
<g filter="url(#filter1_b)">
<path d="M74 201L78.6228 201.38L78.2426 196.757L82.8654 197.137L82.4853 192.515L87.1081 192.895L86.7279 188.272L91.3507 188.652L90.9706 184.029L158.853 251.912L153.997 251.163L154.61 256.154L149.755 255.406L150.368 260.397L145.512 259.649L146.125 264.64L141.269 263.891L141.882 268.882L74 201Z" fill="#1E1E1E" fill-opacity="0.05"/>
</g>
<defs>
<filter id="filter0_b" x="318" y="31.0294" width="92.8528" height="92.8528" filterUnits="userSpaceOnUse" color-interpolation-filters="sRGB">
<feFlood flood-opacity="0" result="BackgroundImageFix"/>
<feGaussianBlur in="BackgroundImage" stdDeviation="2"/>
<feComposite in2="SourceAlpha" operator="in" result="effect1_backgroundBlur"/>
<feBlend mode="normal" in="SourceGraphic" in2="effect1_backgroundBlur" result="shape"/>
</filter>
<filter id="filter1_b" x="70" y="180.029" width="92.8528" height="92.8528" filterUnits="userSpaceOnUse" color-interpolation-filters="sRGB">
<feFlood flood-opacity="0" result="BackgroundImageFix"/>
<feGaussianBlur in="BackgroundImage" stdDeviation="2"/>
<feComposite in2="SourceAlpha" operator="in" result="effect1_backgroundBlur"/>
<feBlend mode="normal" in="SourceGraphic" in2="effect1_backgroundBlur" result="shape"/>
</filter>
</defs>
</svg>
