<svg width="42" height="42" viewBox="0 0 42 42" fill="none" xmlns="http://www.w3.org/2000/svg">
<rect width="42" height="42" rx="21" fill="#60D9D1"/>
<path d="M13.0667 24.7335H9.13329L8.38549 27H6L10.0531 16H12.132L16.2075 27H13.822L13.0667 24.7335ZM9.73901 22.8977H12.461L11.0925 18.7802L9.73901 22.8977Z" fill="white"/>
<path d="M24.6941 22.2328H20.3868V25.1793H25.4419V27H18.1434V16H25.427V17.8359H20.3868V20.4574H24.6941V22.2328Z" fill="white"/>
<path d="M27.677 27V16H31.0271C31.9843 16 32.8393 16.2191 33.5921 16.6573C34.3499 17.0904 34.9406 17.7099 35.3644 18.5158C35.7881 19.3166 36 20.2283 36 21.2507V21.7569C36 22.7793 35.7906 23.6884 35.3718 24.4842C34.9581 25.28 34.3723 25.897 33.6145 26.3352C32.8567 26.7734 32.0018 26.995 31.0496 27H27.677ZM29.9204 17.8359V25.1793H31.0047C31.8821 25.1793 32.5526 24.8897 33.0163 24.3104C33.4799 23.7312 33.7167 22.9027 33.7267 21.8249V21.2431C33.7267 20.125 33.4974 19.2788 33.0387 18.7047C32.5801 18.1255 31.9095 17.8359 31.0271 17.8359H29.9204Z" fill="white"/>
</svg>
