<svg width="27" height="27" viewBox="0 0 27 27" fill="none" xmlns="http://www.w3.org/2000/svg">
<rect width="27" height="27" rx="13.5" fill="#F2C94C"/>
<path d="M19.2858 16.7758C19.2858 17.3763 19.1511 17.9028 18.8817 18.3553C18.6205 18.8078 18.2695 19.1907 17.8286 19.504C17.396 19.8086 16.898 20.0392 16.3348 20.1959C16.0921 20.2596 15.8472 20.3096 15.6001 20.3459C15.2734 20.3938 14.9428 20.4178 14.6082 20.4178H14.0645H12.9356H11.2042H7.71436V19.6345C8.08987 19.6345 8.39191 19.6041 8.62048 19.5432C8.85721 19.4736 9.0368 19.3691 9.15925 19.2299C9.28987 19.0819 9.37558 18.8905 9.4164 18.6555C9.46538 18.4119 9.48987 18.1203 9.48987 17.7809V9.71376C9.48987 9.37436 9.46538 9.08718 9.4164 8.85222C9.37558 8.60855 9.28987 8.4171 9.15925 8.27786C9.0368 8.12991 8.85721 8.02549 8.62048 7.96457C8.39191 7.89495 8.08987 7.86014 7.71436 7.86014V7.07692H11.2042H12.9356H14.0645H14.6939C15.0171 7.07692 15.3192 7.09764 15.6001 7.13909C15.9365 7.18872 16.2426 7.26808 16.5184 7.37715C17.0246 7.57731 17.4368 7.82968 17.7552 8.13427C18.0735 8.43885 18.3062 8.7739 18.4531 9.1394C18.6082 9.5049 18.6858 9.85735 18.6858 10.1967C18.6858 10.5361 18.6531 10.8581 18.5878 11.1627C18.5307 11.4673 18.396 11.7501 18.1837 12.0112C17.9797 12.2723 17.6817 12.5159 17.2899 12.7422C16.9062 12.9598 16.3837 13.1556 15.7225 13.3296C16.9797 13.5994 17.8858 14.0258 18.4409 14.6089C19.0042 15.1832 19.2858 15.9055 19.2858 16.7758ZM15.6001 10.4448C15.6001 10.0793 15.5552 9.76162 15.4654 9.49185C15.3837 9.21337 15.2409 8.98275 15.0368 8.8C14.8327 8.61725 14.5633 8.48236 14.2286 8.39534C13.9021 8.29961 13.4899 8.25175 12.9919 8.25175C12.9184 8.25175 12.845 8.2561 12.7715 8.2648C12.7062 8.27351 12.645 8.28221 12.5878 8.29091C12.5225 8.29961 12.4572 8.30831 12.3919 8.31702V12.8989C12.4572 12.9076 12.5225 12.9119 12.5878 12.9119C12.645 12.9206 12.7062 12.925 12.7715 12.925C12.845 12.925 12.9184 12.925 12.9919 12.925C13.8735 12.925 14.5266 12.703 14.9511 12.2592C15.3837 11.8067 15.6001 11.2019 15.6001 10.4448ZM16.0286 16.8672C16.0286 15.8664 15.7593 15.1397 15.2205 14.6872C14.6899 14.226 13.947 13.9954 12.9919 13.9954C12.9184 13.9954 12.845 13.9997 12.7715 14.0084C12.7062 14.0084 12.645 14.0128 12.5878 14.0215C12.5225 14.0302 12.4572 14.0345 12.3919 14.0345V18.0942C12.3919 18.5641 12.4735 18.8774 12.6368 19.0341C12.8082 19.182 13.0654 19.256 13.4082 19.256C13.7021 19.256 14.0001 19.2255 14.3021 19.1646C14.6123 19.1037 14.8939 18.9862 15.147 18.8122C15.4082 18.6381 15.6205 18.3988 15.7837 18.0942C15.947 17.7809 16.0286 17.3719 16.0286 16.8672Z" fill="white"/>
<path d="M14.0645 7.07692H14.6939C15.0171 7.07692 15.3192 7.09764 15.6001 7.13909V5.78574H14.0645V7.07692Z" fill="white"/>
<path d="M11.2042 5.78574V7.07692H12.9356V5.78574H11.2042Z" fill="white"/>
<path d="M14.6082 20.4178H14.0645V21.8572H15.6001V20.3459C15.2734 20.3938 14.9428 20.4178 14.6082 20.4178Z" fill="white"/>
<path d="M11.2042 21.8572H12.9356V20.4178H11.2042V21.8572Z" fill="white"/>
</svg>
