<svg width="42" height="42" viewBox="0 0 42 42" fill="none" xmlns="http://www.w3.org/2000/svg">
<rect width="42" height="42" rx="21" fill="#D25EE6"/>
<path d="M12.621 22.2797L14.5404 22.8799C14.2461 23.9354 13.7557 24.7203 13.069 25.2348C12.3869 25.7449 11.5197 26 10.4675 26C9.16557 26 8.09552 25.5624 7.25731 24.6873C6.4191 23.8078 6 22.6073 6 21.0858C6 19.4763 6.42133 18.2274 7.264 17.3391C8.10667 16.4464 9.21462 16 10.5879 16C11.7872 16 12.7614 16.3496 13.5104 17.0488C13.9563 17.4622 14.2907 18.0558 14.5136 18.8298L12.5541 19.2916C12.4382 18.7902 12.1952 18.3945 11.8251 18.1042C11.4595 17.814 11.0136 17.6689 10.4875 17.6689C9.76079 17.6689 9.17003 17.9261 8.71526 18.4406C8.26495 18.9551 8.03979 19.7885 8.03979 20.9406C8.03979 22.1631 8.26272 23.0339 8.70857 23.5528C9.15443 24.0717 9.73404 24.3311 10.4474 24.3311C10.9735 24.3311 11.4261 24.1662 11.805 23.8364C12.184 23.5066 12.456 22.9877 12.621 22.2797Z" fill="white"/>
<path d="M25.9089 25.8351H23.7554L22.8993 23.6385H18.9803L18.171 25.8351H16.0711L19.8898 16.1649H21.9831L25.9089 25.8351ZM22.264 22.0092L20.9131 18.4208L19.5889 22.0092H22.264Z" fill="white"/>
<path d="M27.7807 16.1649H31.3988C32.2147 16.1649 32.8367 16.2265 33.2647 16.3496C33.8398 16.5167 34.3325 16.8135 34.7427 17.2401C35.1529 17.6667 35.465 18.19 35.679 18.81C35.893 19.4257 36 20.1865 36 21.0923C36 21.8883 35.8997 22.5743 35.699 23.1504C35.4538 23.854 35.1038 24.4235 34.6491 24.8588C34.3057 25.1887 33.8421 25.4459 33.258 25.6306C32.8211 25.7669 32.237 25.8351 31.5058 25.8351H27.7807V16.1649ZM29.7603 17.8008V24.2058H31.2383C31.7911 24.2058 32.1902 24.175 32.4354 24.1135C32.7564 24.0343 33.0217 23.9002 33.2312 23.7111C33.4452 23.522 33.6191 23.212 33.7529 22.781C33.8866 22.3456 33.9535 21.7542 33.9535 21.0066C33.9535 20.259 33.8866 19.6851 33.7529 19.285C33.6191 18.8848 33.4319 18.5726 33.1911 18.3483C32.9503 18.124 32.6449 17.9723 32.2749 17.8931C31.9984 17.8316 31.4567 17.8008 30.6497 17.8008H29.7603Z" fill="white"/>
</svg>
