<svg width="27" height="27" viewBox="0 0 27 27" fill="none" xmlns="http://www.w3.org/2000/svg">
<rect width="27" height="27" rx="13.5" fill="#77548C"/>
<path d="M8.25649 13.7863H5.36363V15.745H8.75872V16.9554H3.85693V9.64287H8.74867V10.8633H5.36363V12.606H8.25649V13.7863Z" fill="white"/>
<path d="M15.7944 9.64287V14.4593C15.7944 15.2595 15.5433 15.8923 15.041 16.3577C14.5422 16.8231 13.8591 17.0558 12.9919 17.0558C12.1381 17.0558 11.4601 16.8298 10.9579 16.3778C10.4557 15.9258 10.1995 15.3047 10.1895 14.5145V9.64287H11.6962V14.4693C11.6962 14.9481 11.81 15.298 12.0377 15.519C12.2687 15.7366 12.5868 15.8454 12.9919 15.8454C13.839 15.8454 14.2693 15.4001 14.2827 14.5095V9.64287H15.7944Z" fill="white"/>
<path d="M20.3541 14.2785H19.1537V16.9554H17.647V9.64287H20.3641C21.2279 9.64287 21.8942 9.83539 22.363 10.2204C22.8317 10.6055 23.0661 11.1496 23.0661 11.8527C23.0661 12.3516 22.9573 12.7684 22.7397 13.1032C22.5254 13.4347 22.1989 13.6992 21.7603 13.8968L23.3423 16.8851V16.9554H21.7251L20.3541 14.2785ZM19.1537 13.058H20.3691C20.7475 13.058 21.0404 12.9626 21.248 12.7718C21.4556 12.5776 21.5594 12.3114 21.5594 11.9732C21.5594 11.6284 21.4606 11.3572 21.2631 11.1596C21.0689 10.9621 20.7692 10.8633 20.3641 10.8633H19.1537V13.058Z" fill="white"/>
</svg>
