<svg width="42" height="42" viewBox="0 0 42 42" fill="none" xmlns="http://www.w3.org/2000/svg">
<rect width="42" height="42" rx="21" fill="#F88A3B"/>
<path d="M9.3828 21.9077V20.1154H14.068V24.3529C13.6127 24.7883 12.9517 25.1728 12.0852 25.5066C11.2236 25.8355 10.3497 26 9.46358 26C8.33757 26 7.35599 25.7678 6.51883 25.3034C5.68167 24.8342 5.05257 24.1667 4.63154 23.3008C4.21051 22.4301 4 21.4844 4 20.4637C4 19.356 4.23499 18.3716 4.70498 17.5106C5.17496 16.6495 5.86281 15.9892 6.76851 15.5297C7.4588 15.1766 8.31799 15 9.34608 15C10.6826 15 11.7254 15.2781 12.4744 15.8344C13.2284 16.3859 13.713 17.1502 13.9284 18.1273L11.7694 18.5264C11.6177 18.004 11.3313 17.5928 10.9102 17.2929C10.4941 16.9881 9.97273 16.8358 9.34608 16.8358C8.39632 16.8358 7.63994 17.1332 7.07693 17.7282C6.51883 18.3232 6.23977 19.206 6.23977 20.3766C6.23977 21.6392 6.52372 22.5873 7.09162 23.221C7.65952 23.8498 8.40366 24.1642 9.32405 24.1642C9.77935 24.1642 10.2346 24.0772 10.6899 23.903C11.1501 23.7241 11.5442 23.5088 11.8723 23.2573V21.9077H9.3828Z" fill="white"/>
<path d="M16.9898 15.1814H21.2931C22.1449 15.1814 22.7789 15.2177 23.1951 15.2902C23.6161 15.358 23.9906 15.5031 24.3186 15.7256C24.6515 15.9481 24.9281 16.2456 25.1484 16.6181C25.3688 16.9857 25.4789 17.3993 25.4789 17.8588C25.4789 18.3571 25.3418 18.8142 25.0677 19.2302C24.7984 19.6462 24.4312 19.9582 23.9661 20.1662C24.6222 20.3549 25.1264 20.6766 25.4789 21.1313C25.8314 21.586 26.0076 22.1205 26.0076 22.7348C26.0076 23.2186 25.8926 23.6902 25.6625 24.1497C25.4373 24.6044 25.1264 24.9697 24.7299 25.2454C24.3382 25.5163 23.8535 25.6832 23.2758 25.746C22.9136 25.7847 22.0397 25.8089 20.6542 25.8186H16.9898V15.1814ZM19.1635 16.9518V19.4116H20.5881C21.4351 19.4116 21.9614 19.3995 22.167 19.3753C22.539 19.3318 22.8303 19.206 23.0409 18.998C23.2563 18.7852 23.364 18.507 23.364 18.1636C23.364 17.8347 23.271 17.5686 23.0849 17.3654C22.9038 17.1574 22.6321 17.0317 22.2698 16.9881C22.0544 16.9639 21.4351 16.9518 20.4119 16.9518H19.1635ZM19.1635 21.1821V24.0264H21.1756C21.9589 24.0264 22.4558 24.0046 22.6663 23.9611C22.9895 23.903 23.2514 23.7628 23.4521 23.5402C23.6577 23.3129 23.7605 23.0106 23.7605 22.6332C23.7605 22.314 23.6822 22.0431 23.5255 21.8206C23.3689 21.5981 23.1412 21.436 22.8426 21.3344C22.5488 21.2328 21.9075 21.1821 20.9186 21.1821H19.1635Z" fill="white"/>
<path d="M28.7532 25.8186V15.1814H32.2414C33.5632 15.1814 34.4249 15.2346 34.8263 15.341C35.4432 15.5007 35.9597 15.8489 36.3758 16.3859C36.7919 16.918 37 17.6073 37 18.4538C37 19.1069 36.8801 19.6559 36.6402 20.1009C36.4003 20.546 36.0943 20.8967 35.7222 21.153C35.3551 21.4046 34.9805 21.5715 34.5987 21.6537C34.0797 21.7553 33.3282 21.8061 32.3442 21.8061H30.9269V25.8186H28.7532ZM30.9269 16.9809V19.9993H32.1166C32.9733 19.9993 33.5461 19.9437 33.8349 19.8325C34.1238 19.7212 34.349 19.5471 34.5105 19.31C34.677 19.073 34.7602 18.7973 34.7602 18.4828C34.7602 18.0959 34.6452 17.7766 34.4151 17.5251C34.185 17.2735 33.8937 17.1163 33.5412 17.0534C33.2817 17.0051 32.7603 16.9809 31.977 16.9809H30.9269Z" fill="white"/>
</svg>
