<svg width="27" height="27" viewBox="0 0 27 27" fill="none" xmlns="http://www.w3.org/2000/svg">
<path d="M27 13.5C27 6.04416 20.9558 0 13.5 0C6.04416 0 0 6.04416 0 13.5C0 20.9558 6.04416 27 13.5 27C20.9558 27 27 20.9558 27 13.5Z" fill="#2DCCD3"/>
<path d="M14.9382 5H12.7033C12.6906 5 12.6779 5.00135 12.6654 5.00402C12.6225 5.01323 12.5835 5.03781 12.5551 5.07383L10.4143 7.77908C10.3635 7.84327 10.2894 7.88021 10.2113 7.88021H4.83704C4.71207 7.88021 4.58879 7.91141 4.47678 7.97137L4.39694 8.02478C4.35941 8.04988 4.3239 8.07835 4.29077 8.10988C4.22232 8.17503 4.1648 8.25252 4.12078 8.3389L4.08514 8.40886C4.02916 8.52872 4 8.66111 4 8.79537V18.1315C4 18.2591 4.02772 18.3849 4.08092 18.4988C4.11755 18.5772 4.16566 18.6488 4.22337 18.7105L4.23212 18.7199C4.31483 18.8085 4.41386 18.8772 4.52274 18.9216L4.55028 18.9328C4.6593 18.9773 4.77486 19 4.89139 19H11.2994C11.3369 19 11.3744 18.9946 11.4107 18.984C11.4969 18.9589 11.5737 18.9051 11.6302 18.8302L13.099 16.8859C13.1168 16.8623 13.1246 16.8319 13.1206 16.8018C13.1143 16.7542 13.0795 16.7167 13.0354 16.7101L12.9907 16.7032H6.2782C6.24773 16.7032 6.2185 16.6901 6.19683 16.6669C6.17488 16.6435 6.16252 16.6114 6.16252 16.5781V10.3022C6.16252 10.2688 6.17488 10.2367 6.19683 10.2133C6.2185 10.1902 6.24773 10.1771 6.2782 10.1771H10.7216C10.9295 10.1771 11.1268 10.0777 11.2604 9.90547L14.9855 5.10978C14.9948 5.09774 15 5.08253 15 5.0668C15 5.02992 14.9722 5 14.9382 5Z" fill="white"/>
<path d="M12.0618 22H14.2967C14.3094 22 14.3221 21.9985 14.3346 21.9957C14.3775 21.9858 14.4165 21.9595 14.4449 21.9209L16.5857 19.0224C16.6365 18.9536 16.7106 18.914 16.7887 18.914H22.163C22.2879 18.914 22.4113 18.8807 22.5232 18.8164L22.6031 18.7591C22.6405 18.7323 22.6761 18.7017 22.7092 18.6681C22.7777 18.5982 22.8352 18.5152 22.8792 18.4227L22.9149 18.3477C22.9708 18.2192 23 18.0773 23 17.9335V7.93066C23 7.79391 22.9722 7.65907 22.9191 7.53701C22.8824 7.45299 22.8344 7.37639 22.7766 7.31019L22.7679 7.30015C22.6851 7.20528 22.5861 7.13167 22.4772 7.0841L22.4497 7.07205C22.3407 7.02442 22.2251 7 22.1086 7H15.7006C15.6631 7 15.6256 7.00576 15.5893 7.01711C15.5031 7.04409 15.4263 7.10171 15.3698 7.18188L13.901 9.26514C13.8832 9.29039 13.8754 9.32302 13.8794 9.3552C13.8857 9.40629 13.9205 9.44644 13.9646 9.45353L14.0093 9.46091H20.7218C20.7523 9.46091 20.7816 9.47494 20.8032 9.49974C20.8251 9.52484 20.8375 9.55924 20.8375 9.59497V16.3191C20.8375 16.3548 20.8251 16.3892 20.8032 16.4143C20.7816 16.4391 20.7523 16.4532 20.7218 16.4532H16.2784C16.0705 16.4532 15.8732 16.5596 15.7396 16.7442L12.0145 21.8823C12.0052 21.8953 12 21.9116 12 21.9284C12 21.968 12.0278 22 12.0618 22Z" fill="white"/>
</svg>
