<svg width="27" height="27" viewBox="0 0 27 27" fill="none" xmlns="http://www.w3.org/2000/svg">
<rect width="27" height="27" rx="13.5" fill="#548C59"/>
<path d="M9.26365 9.746V14.6912C9.26365 15.5128 9.02142 16.1625 8.53694 16.6404C8.0557 17.1182 7.39682 17.3572 6.56029 17.3572C5.73669 17.3572 5.08265 17.1251 4.59818 16.661C4.1137 16.1969 3.86662 15.5592 3.85693 14.7479V9.746H5.31035V14.7015C5.31035 15.1931 5.42017 15.5523 5.6398 15.7792C5.86265 16.0027 6.16949 16.1144 6.56029 16.1144C7.37744 16.1144 7.79247 15.6572 7.80539 14.7428V9.746H9.26365Z" fill="white"/>
<path d="M14.7086 15.2842C14.7086 14.992 14.6117 14.7685 14.4179 14.6138C14.2241 14.4557 13.8753 14.2907 13.3714 14.1188C12.8676 13.9435 12.4687 13.7716 12.1748 13.6031C11.3738 13.1425 10.9733 12.522 10.9733 11.7416C10.9733 11.336 11.0798 10.975 11.293 10.6587C11.5094 10.339 11.8179 10.0898 12.2184 9.91101C12.6221 9.73225 13.0743 9.64287 13.5749 9.64287C14.0787 9.64287 14.5277 9.74084 14.9217 9.93679C15.3158 10.1293 15.621 10.4026 15.8374 10.7567C16.057 11.1108 16.1668 11.513 16.1668 11.9633H14.7134C14.7134 11.6196 14.6117 11.3531 14.4082 11.1641C14.2047 10.9716 13.9189 10.8753 13.5507 10.8753C13.1954 10.8753 12.9192 10.9561 12.7222 11.1177C12.5252 11.2758 12.4267 11.4855 12.4267 11.7468C12.4267 11.9908 12.5413 12.1954 12.7707 12.3604C13.0032 12.5254 13.344 12.6801 13.7929 12.8245C14.6197 13.0892 15.2221 13.4175 15.6 13.8094C15.9779 14.2013 16.1668 14.6895 16.1668 15.2739C16.1668 15.9236 15.9359 16.4341 15.474 16.8054C15.0122 17.1732 14.3904 17.3572 13.6088 17.3572C13.0662 17.3572 12.572 17.2523 12.1263 17.0426C11.6806 16.8295 11.3398 16.539 11.1041 16.1711C10.8715 15.8033 10.7553 15.377 10.7553 14.8923H12.2135C12.2135 15.7208 12.6786 16.135 13.6088 16.135C13.9544 16.135 14.2241 16.0611 14.4179 15.9133C14.6117 15.762 14.7086 15.5523 14.7086 15.2842Z" fill="white"/>
<path d="M17.7505 17.254V9.746H19.9209C20.541 9.746 21.0949 9.89554 21.5826 10.1946C22.0736 10.4903 22.4563 10.9131 22.7308 11.4632C23.0054 12.0098 23.1426 12.632 23.1426 13.3298V13.6753C23.1426 14.3732 23.007 14.9937 22.7357 15.5369C22.4676 16.08 22.0881 16.5012 21.5972 16.8002C21.1062 17.0993 20.5523 17.2506 19.9354 17.254H17.7505ZM19.2039 10.9991V16.0113H19.9064C20.4748 16.0113 20.9092 15.8136 21.2096 15.4183C21.51 15.0229 21.6634 14.4574 21.6699 13.7217V13.3247C21.6699 12.5615 21.5213 11.984 21.2241 11.5921C20.927 11.1967 20.4926 10.9991 19.9209 10.9991H19.2039Z" fill="white"/>
</svg>
