<svg width="42" height="42" viewBox="0 0 42 42" fill="none" xmlns="http://www.w3.org/2000/svg">
<path d="M0 21C0 9.40202 9.40202 0 21 0V0C32.598 0 42 9.40202 42 21V21C42 32.598 32.598 42 21 42V42C9.40202 42 0 32.598 0 21V21Z" fill="#6FA688"/>
<path fill-rule="evenodd" clip-rule="evenodd" d="M32.2004 9.79999H9.80039V15.4H18.2004V16.8867C12.5892 17.2404 8.40039 18.6343 8.40039 20.3C8.40039 21.9657 12.5892 23.3596 18.2004 23.7133V32.2H23.8004V23.7133C29.4116 23.3596 33.6004 21.9657 33.6004 20.3C33.6004 18.6343 29.4116 17.2404 23.8004 16.8867V15.4H32.2004V9.79999ZM10.5004 20.3C10.5004 18.8449 13.0671 17.3152 18.2004 16.9058V21.7H23.8004V16.9062C29.3142 17.3498 31.5004 19.0874 31.5004 20.3C31.5004 21.4508 28.0015 22.1286 23.8004 22.3334C21.9919 22.4647 19.3135 22.3756 18.2004 22.3147C13.9993 22.0583 10.5004 21.2533 10.5004 20.3Z" fill="white"/>
</svg>
