<svg width="83" height="83" viewBox="0 0 83 83" fill="none" xmlns="http://www.w3.org/2000/svg">
<rect width="83" height="83" rx="22" fill="#242424"/>
<path d="M41.4793 18.9497C28.6796 18.9445 18.3125 29.3064 18.3125 42.0958C18.3125 52.2093 24.7978 60.8063 33.8295 63.9635C35.0458 64.2689 34.8595 63.4045 34.8595 62.8145V58.8032C27.8359 59.6262 27.5513 54.9783 27.0803 54.202C26.1279 52.5768 23.8765 52.1627 24.5493 51.3863C26.1486 50.5634 27.779 51.5934 29.6682 54.3831C31.0346 56.4068 33.7001 56.0652 35.051 55.7288C35.346 54.5125 35.9774 53.4256 36.847 52.5819C29.5698 51.2776 26.5368 46.8368 26.5368 41.5575C26.5368 38.9955 27.3805 36.6405 29.0367 34.741C27.9809 31.6097 29.1351 28.9286 29.2903 28.5301C32.2975 28.2609 35.4236 30.6832 35.6669 30.8747C37.3749 30.4141 39.3262 30.1708 41.5104 30.1708C43.7049 30.1708 45.6613 30.4244 47.3849 30.8902C47.9697 30.4451 50.8682 28.3645 53.6631 28.6181C53.8132 29.0166 54.9415 31.6356 53.9478 34.7255C55.6247 36.6302 56.4787 39.0059 56.4787 41.5731C56.4787 46.8627 53.425 51.3087 46.1271 52.5923C46.7522 53.207 47.2486 53.9401 47.5871 54.7488C47.9257 55.5575 48.0998 56.4255 48.0991 57.3022V63.125C48.1405 63.5908 48.0991 64.0515 48.8755 64.0515C58.0418 60.9615 64.6409 52.3024 64.6409 42.101C64.6409 29.3064 54.2687 18.9497 41.4793 18.9497V18.9497Z" fill="white"/>
</svg>
