<svg width="83" height="83" viewBox="0 0 83 83" fill="none" xmlns="http://www.w3.org/2000/svg">
<rect width="83" height="83" rx="22" fill="url(#paint0_linear)"/>
<path d="M41.9999 31.1846C36.0146 31.1846 31.1841 36.015 31.1841 42.0004C31.1841 47.9857 36.0146 52.8162 41.9999 52.8162C47.9853 52.8162 52.8157 47.9857 52.8157 42.0004C52.8157 36.015 47.9853 31.1846 41.9999 31.1846ZM41.9999 49.0299C38.1292 49.0299 34.9704 45.8711 34.9704 42.0004C34.9704 38.1297 38.1292 34.9709 41.9999 34.9709C45.8706 34.9709 49.0294 38.1297 49.0294 42.0004C49.0294 45.8711 45.8706 49.0299 41.9999 49.0299ZM53.2587 28.2209C51.8612 28.2209 50.7327 29.3494 50.7327 30.7469C50.7327 32.1443 51.8612 33.2729 53.2587 33.2729C54.6562 33.2729 55.7847 32.1496 55.7847 30.7469C55.7851 30.415 55.72 30.0864 55.5933 29.7797C55.4665 29.4731 55.2804 29.1945 55.0458 28.9598C54.8111 28.7252 54.5325 28.5391 54.2259 28.4123C53.9192 28.2855 53.5905 28.2205 53.2587 28.2209V28.2209ZM63.0831 42.0004C63.0831 39.0895 63.1095 36.2049 62.946 33.2992C62.7825 29.9242 62.0126 26.9289 59.5446 24.4609C57.0714 21.9877 54.0814 21.2231 50.7064 21.0596C47.7954 20.8961 44.9109 20.9225 42.0052 20.9225C39.0943 20.9225 36.2097 20.8961 33.304 21.0596C29.929 21.2231 26.9337 21.993 24.4657 24.4609C21.9925 26.9342 21.2278 29.9242 21.0644 33.2992C20.9009 36.2102 20.9273 39.0947 20.9273 42.0004C20.9273 44.9061 20.9009 47.7959 21.0644 50.7016C21.2278 54.0766 21.9978 57.0719 24.4657 59.5398C26.939 62.0131 29.929 62.7777 33.304 62.9412C36.215 63.1047 39.0995 63.0783 42.0052 63.0783C44.9161 63.0783 47.8007 63.1047 50.7064 62.9412C54.0814 62.7777 57.0767 62.0078 59.5446 59.5398C62.0179 57.0666 62.7825 54.0766 62.946 50.7016C63.1148 47.7959 63.0831 44.9113 63.0831 42.0004V42.0004ZM58.4425 54.4352C58.0575 55.3949 57.5935 56.1121 56.8499 56.8504C56.1064 57.5939 55.3945 58.058 54.4347 58.443C51.6609 59.5451 45.0743 59.2973 41.9999 59.2973C38.9255 59.2973 32.3337 59.5451 29.5599 58.4482C28.6001 58.0633 27.8829 57.5992 27.1446 56.8557C26.4011 56.1121 25.937 55.4002 25.5521 54.4404C24.4552 51.6613 24.703 45.0748 24.703 42.0004C24.703 38.926 24.4552 32.3342 25.5521 29.5604C25.937 28.6006 26.4011 27.8834 27.1446 27.1451C27.8882 26.4068 28.6001 25.9375 29.5599 25.5525C32.3337 24.4557 38.9255 24.7035 41.9999 24.7035C45.0743 24.7035 51.6661 24.4557 54.44 25.5525C55.3997 25.9375 56.1169 26.4016 56.8552 27.1451C57.5987 27.8887 58.0628 28.6006 58.4478 29.5604C59.5446 32.3342 59.2968 38.926 59.2968 42.0004C59.2968 45.0748 59.5446 51.6613 58.4425 54.4352Z" fill="white"/>
<defs>
<linearGradient id="paint0_linear" x1="72" y1="2.5" x2="41.5" y2="83" gradientUnits="userSpaceOnUse">
<stop stop-color="#9034BB"/>
<stop offset="1" stop-color="#FFB800"/>
</linearGradient>
</defs>
</svg>
