<svg width="83" height="83" viewBox="0 0 83 83" fill="none" xmlns="http://www.w3.org/2000/svg">
<rect width="83" height="83" rx="22" fill="#005782"/>
<g clip-path="url(#clip0)">
<path d="M31.0811 59.9995V35.0357H22.5067V59.9995H31.0811ZM26.795 31.6252C29.7851 31.6252 31.6462 29.7083 31.6462 27.3128C31.5905 24.8632 29.7852 22.9995 26.8518 22.9995C23.9188 22.9995 22.0009 24.8633 22.0009 27.3128C22.0009 29.7084 23.8615 31.6252 26.739 31.6252H26.7948H26.795ZM35.827 59.9995H44.4013V46.0585C44.4013 45.3124 44.457 44.5671 44.6835 44.0337C45.3033 42.543 46.7141 40.9991 49.0827 40.9991C52.1855 40.9991 53.4267 43.2883 53.4267 46.6442V59.9994H62.0005V45.6853C62.0005 38.0174 57.7704 34.4496 52.129 34.4496C47.5035 34.4496 45.4726 36.9516 44.3443 38.6557H44.4015V35.0352H35.8272C35.9397 37.3776 35.8272 59.999 35.8272 59.999L35.827 59.9995Z" fill="white"/>
</g>
<defs>
<clipPath id="clip0">
<rect x="22" y="23" width="40" height="37" fill="white"/>
</clipPath>
</defs>
</svg>
