<svg width="83" height="83" viewBox="0 0 83 83" fill="none" xmlns="http://www.w3.org/2000/svg">
<rect width="83" height="83" rx="22" fill="#00AFF0"/>
<path d="M61.4644 45.0771C61.6846 43.8687 61.8028 42.6333 61.8028 41.3979C61.8028 38.6587 61.2657 36 60.2076 33.5024C59.187 31.0854 57.7207 28.9155 55.857 27.0518C54.0088 25.1989 51.8179 23.7231 49.4063 22.7065C46.9034 21.6484 44.25 21.1113 41.5108 21.1113C40.2217 21.1113 38.9273 21.2349 37.6704 21.4766C35.9314 20.555 33.9936 20.0719 32.0254 20.0693C28.8189 20.0693 25.8003 21.3208 23.5337 23.5874C22.4153 24.7001 21.5285 26.0235 20.9246 27.4811C20.3208 28.9386 20.0118 30.5014 20.0157 32.0791C20.0157 34.1201 20.542 36.1289 21.5249 37.9014C21.3262 39.0508 21.2188 40.2271 21.2188 41.3979C21.2188 44.1372 21.7559 46.7959 22.814 49.2935C23.8345 51.7104 25.2954 53.8804 27.1592 55.7441C29.023 57.6079 31.1929 59.0688 33.6099 60.0894C36.1128 61.1475 38.7661 61.6846 41.5054 61.6846C42.6978 61.6846 43.8902 61.5771 45.0611 61.3677C46.8604 62.3828 48.8907 62.9253 50.9693 62.9253C54.1758 62.9253 57.1944 61.6792 59.461 59.4072C61.7329 57.1406 62.979 54.1221 62.979 50.9155C62.9844 48.8745 62.458 46.8604 61.4644 45.0771ZM56.7325 56.6787C55.191 58.2256 53.1553 59.0635 50.9746 59.0635C49.5728 59.0635 48.1924 58.6982 46.9678 58.0054L45.7593 57.3232L44.3897 57.5649C43.4336 57.7368 42.4668 57.8228 41.5108 57.8228C39.2871 57.8228 37.1441 57.3877 35.1138 56.5283C33.1641 55.7065 31.4077 54.5249 29.8931 53.0103C28.3937 51.516 27.1989 49.7448 26.375 47.7949C25.5157 45.77 25.086 43.627 25.086 41.4033C25.086 40.4688 25.1719 39.5127 25.333 38.5674L25.5694 37.2192L24.9034 36.0215C24.2316 34.816 23.8785 33.4591 23.8775 32.0791C23.8775 29.8984 24.7207 27.8628 26.2622 26.3213C27.8091 24.7798 29.8448 23.9365 32.0254 23.9365C33.3629 23.9401 34.6794 24.2702 35.8604 24.8979L37.0635 25.5317L38.3955 25.2739C39.4107 25.0806 40.458 24.9785 41.5108 24.9785C43.7344 24.9785 45.8775 25.4136 47.9024 26.2676C49.8628 27.0947 51.6138 28.2764 53.1231 29.7856C54.6377 31.2949 55.8194 33.0513 56.6465 35.0063C57.5059 37.0313 57.9356 39.1743 57.9356 41.3979C57.9356 42.3862 57.8443 43.3853 57.6617 44.3789L57.4092 45.7485L58.086 46.9624C58.7627 48.1709 59.1172 49.5405 59.1172 50.9209C59.1172 53.1069 58.274 55.1372 56.7325 56.6787V56.6787ZM45.335 39.04L40.5869 37.9873C38.7823 37.5737 36.7036 37.0313 36.7036 35.3286C36.7036 33.626 38.1592 32.4336 40.791 32.4336C46.0923 32.4336 45.6089 36.0752 48.2408 36.0752C49.6265 36.0752 50.8404 35.2588 50.8404 33.8623C50.8404 30.5967 45.6089 28.1421 41.1724 28.1421C36.3545 28.1421 31.2251 30.1885 31.2251 35.6348C31.2251 38.2559 32.1597 41.0488 37.3267 42.3433L43.7398 43.9438C45.6787 44.4219 46.1675 45.5122 46.1675 46.5005C46.1675 48.1387 44.5401 49.7393 41.5913 49.7393C35.8335 49.7393 36.6338 45.3081 33.5508 45.3081C32.1651 45.3081 31.1607 46.2642 31.1607 47.623C31.1607 50.2764 34.3833 53.8213 41.5913 53.8213C48.4502 53.8213 51.8501 50.5181 51.8501 46.0869C51.8501 43.2349 50.5342 40.2002 45.335 39.04Z" fill="white"/>
</svg>
