<svg width="83" height="83" viewBox="0 0 83 83" fill="none" xmlns="http://www.w3.org/2000/svg">
<rect width="83" height="83" rx="22" fill="#40B3E0"/>
<path d="M59.517 26.7076L53.0868 59.127C53.0868 59.127 52.1876 61.3753 49.7146 60.2962L34.8764 48.9202L29.4809 46.3124L20.3982 43.2547C20.3982 43.2547 19.0044 42.7602 18.8694 41.6811C18.7344 40.6019 20.4432 40.0175 20.4432 40.0175L56.549 25.8537C56.549 25.8537 59.5167 24.5498 59.5167 26.7082" fill="white"/>
<path d="M33.7364 58.7627C33.7364 58.7627 33.3033 58.7222 32.7633 57.0133C32.2241 55.3047 29.4811 46.312 29.4811 46.312L51.2886 32.4633C51.2886 32.4633 52.5478 31.6988 52.5028 32.4633C52.5028 32.4633 52.7275 32.5983 52.0528 33.2277C51.3786 33.8574 34.9219 48.6503 34.9219 48.6503" fill="#D2E5F1"/>
<path d="M40.5657 53.2826L34.6969 58.6337C34.6969 58.6337 34.2379 58.9818 33.7362 58.7636L34.86 48.8242" fill="#B5CFE4"/>
</svg>
