<svg width="83" height="83" viewBox="0 0 83 83" fill="none" xmlns="http://www.w3.org/2000/svg">
<rect width="83" height="83" rx="22" fill="#55ACEE"/>
<g clip-path="url(#clip0)">
<path d="M66 26.7495C64.2337 27.5289 62.3359 28.0557 60.3439 28.2927C62.3773 27.0798 63.9386 25.159 64.6738 22.8706C62.7408 24.0122 60.6259 24.8165 58.4205 25.2488C56.6241 23.3441 54.0649 22.1538 51.2323 22.1538C45.7937 22.1538 41.3843 26.542 41.3843 31.9542C41.3843 32.7224 41.4714 33.4703 41.6392 34.1878C33.4549 33.779 26.1986 29.8773 21.3414 23.9478C20.4939 25.3953 20.0083 27.079 20.0083 28.8749C20.0083 32.2751 21.747 35.2748 24.3893 37.0324C22.8254 36.9837 21.296 36.5633 19.9286 35.8064C19.9281 35.8475 19.9281 35.8885 19.9281 35.9298C19.9281 40.6782 23.3226 44.6395 27.8274 45.5398C26.3773 45.9323 24.8562 45.9898 23.3803 45.7078C24.6334 49.6014 28.2703 52.4348 32.5794 52.5141C29.2091 55.1426 24.9628 56.7095 20.3492 56.7095C19.5542 56.7095 18.7704 56.663 18 56.5725C22.3581 59.3533 27.5344 60.9758 33.0956 60.9758C51.2094 60.9758 61.1145 46.0418 61.1145 33.0908C61.1145 32.6657 61.1051 32.2431 61.086 31.8228C63.0139 30.4358 64.678 28.7178 66 26.7495" fill="white"/>
</g>
<defs>
<clipPath id="clip0">
<rect x="18" y="22" width="48" height="39" fill="white"/>
</clipPath>
</defs>
</svg>
