<svg width="83" height="83" viewBox="0 0 83 83" fill="none" xmlns="http://www.w3.org/2000/svg">
<rect width="83" height="83" rx="22" fill="white"/>
<path d="M37.05 47.5864L50.025 41.0231L37.05 34.4048V47.5864V47.5864Z" fill="white"/>
<path opacity="0.12" d="M37.05 34.4048L48.4312 41.8298L50.025 41.0231L37.05 34.4048V34.4048Z" fill="#420000"/>
<path d="M65.4939 32.1133C65.4939 32.1133 65.0254 28.8867 63.5822 27.4567C61.7642 25.5867 59.7212 25.5867 58.7653 25.4767C52.0744 25 42.0094 25 42.0094 25H41.9906C41.9906 25 31.9258 25 25.1972 25.4767C24.2601 25.5867 22.2171 25.5867 20.3803 27.4567C18.9559 28.8867 18.4873 32.1133 18.4873 32.1133C18.4873 32.1133 18 35.9267 18 39.7217V43.2783C18 47.0733 18.4873 50.8683 18.4873 50.8683C18.4873 50.8683 18.9559 54.095 20.3991 55.525C22.2171 57.395 24.6161 57.34 25.6845 57.5233C29.5268 57.89 41.9906 58 41.9906 58C41.9906 58 52.0742 57.9817 58.7841 57.505C59.7212 57.395 61.7642 57.395 63.6009 55.525C65.0441 54.095 65.5127 50.8683 65.5127 50.8683C65.5127 50.8683 66 47.0733 66 43.2783V39.7217C65.9812 35.9267 65.4939 32.1133 65.4939 32.1133ZM37.0427 47.5867V34.405L50.0124 41.0233L37.0425 47.5867H37.0427Z" fill="url(#paint0_linear)"/>
<defs>
<linearGradient id="paint0_linear" x1="41.9904" y1="25" x2="41.9904" y2="58.0099" gradientUnits="userSpaceOnUse">
<stop stop-color="#E52D27"/>
<stop offset="1" stop-color="#BF171D"/>
</linearGradient>
</defs>
</svg>
