<svg width="33" height="33" viewBox="0 0 33 33" fill="none" xmlns="http://www.w3.org/2000/svg">
<rect width="33" height="33" fill="white"/>
<circle cx="16.5" cy="16.5" r="16.5" fill="#2DCCD3"/>
<path d="M12.5821 21H10.9158V17.5714H7.66636V21H6V13H7.66636V16.2418H10.9158V13H12.5821V21Z" fill="white"/>
<path d="M14.7255 21V13H17.2139C17.9249 13 18.56 13.1593 19.1191 13.478C19.682 13.793 20.1208 14.2436 20.4356 14.8297C20.7503 15.4121 20.9077 16.0751 20.9077 16.8187V17.1868C20.9077 17.9304 20.7522 18.5916 20.4411 19.1703C20.1338 19.7491 19.6987 20.1978 19.1358 20.5165C18.573 20.8352 17.9379 20.9963 17.2306 21H14.7255ZM16.3919 14.3352V19.6758H17.1973C17.849 19.6758 18.3471 19.4652 18.6914 19.044C19.0358 18.6227 19.2117 18.0201 19.2191 17.2363V16.8132C19.2191 16 19.0488 15.3846 18.7081 14.967C18.3674 14.5458 17.8694 14.3352 17.2139 14.3352H16.3919Z" fill="white"/>
<path d="M24.4731 18.1813V21H22.8067V13H25.9617C26.569 13 27.1022 13.1099 27.5614 13.3297C28.0243 13.5495 28.3797 13.8626 28.6278 14.2692C28.8759 14.6722 29 15.1319 29 15.6484C29 16.4322 28.7278 17.0513 28.1835 17.5055C27.6428 17.956 26.893 18.1813 25.9339 18.1813H24.4731ZM24.4731 16.8462H25.9617C26.4023 16.8462 26.7375 16.7436 26.967 16.5385C27.2003 16.3333 27.317 16.0403 27.317 15.6593C27.317 15.2674 27.2003 14.9505 26.967 14.7088C26.7337 14.467 26.4116 14.3425 26.0006 14.3352H24.4731V16.8462Z" fill="white"/>
</svg>
