<svg xmlns="http://www.w3.org/2000/svg" width="30.857" height="24" viewBox="0 0 30.857 24"><defs><style>.a{fill:#999;}</style></defs><path class="a" d="M25.87,53.213a.6.6,0,1,1-.6-.627A.6.6,0,0,1,25.87,53.213ZM9.22,52.586a.628.628,0,1,0,.584.627A.592.592,0,0,0,9.22,52.586Zm6.295-.016a.5.5,0,0,0-.509.466h1.023A.493.493,0,0,0,15.514,52.57Zm5.775.016a.627.627,0,1,0,.6.627A.592.592,0,0,0,21.289,52.586Zm5.673,1.4c0,.016.016.027.016.059,0,.016-.016.027-.016.059a.188.188,0,0,0-.027.043.069.069,0,0,1-.059.027c-.016.016-.027.016-.059.016a.106.106,0,0,1-.059-.016c-.016,0-.027-.016-.043-.027s-.027-.027-.027-.043a.1.1,0,0,1-.016-.059c0-.027,0-.043.016-.059a.1.1,0,0,1,.027-.059.188.188,0,0,1,.043-.027.1.1,0,0,1,.059-.016c.027,0,.043,0,.059.016s.043.016.059.027S26.946,53.957,26.963,53.984Zm-.118.075c.027,0,.027-.016.043-.016a.065.065,0,0,0,0-.086c-.016,0-.027-.016-.059-.016h-.086v.188h.043v-.075H26.8l.059.075H26.9l-.059-.07Zm4.013-18.487V54.429A2.572,2.572,0,0,1,28.286,57H2.571A2.572,2.572,0,0,1,0,54.429V35.571A2.572,2.572,0,0,1,2.571,33H28.286A2.572,2.572,0,0,1,30.857,35.571ZM3.429,43.05a7.416,7.416,0,0,0,11.518,6.182,7.989,7.989,0,0,1,0-12.348A7.416,7.416,0,0,0,3.429,43.05Zm12,5.829a7.417,7.417,0,0,0,0-11.652A7.417,7.417,0,0,0,15.429,48.879ZM7.805,52.966a.751.751,0,0,0-.787-.787.766.766,0,0,0-.686.348.71.71,0,0,0-.654-.348.68.68,0,0,0-.568.289v-.236H4.671V54.2h.439c0-1.013-.134-1.618.482-1.618.546,0,.439.546.439,1.618h.423c0-.98-.134-1.618.482-1.618.546,0,.439.536.439,1.618h.439V52.966Zm2.405-.734H9.788v.236a.772.772,0,0,0-.627-.289,1.036,1.036,0,0,0,0,2.068.743.743,0,0,0,.627-.289V54.2h.423ZM12.38,53.6c0-.8-1.227-.439-1.227-.814,0-.305.637-.257.991-.059l.177-.348c-.5-.327-1.618-.321-1.618.439s1.227.445,1.227.8c0,.338-.723.311-1.109.043l-.187.337c.6.407,1.746.321,1.746-.4Zm1.9.5-.118-.364c-.2.112-.654.236-.654-.22v-.889h.7v-.4h-.7v-.6h-.439v.6h-.407v.391h.407v.895c0,.943.927.771,1.211.584Zm.712-.718h1.473c0-.868-.4-1.211-.932-1.211a.965.965,0,0,0-.975,1.034,1.069,1.069,0,0,0,1.811.761l-.2-.321C15.745,53.989,15.112,53.957,14.989,53.384Zm3.166-1.152a.629.629,0,0,0-.814.236v-.236H16.9V54.2h.439V53.089a.447.447,0,0,1,.686-.45l.129-.407Zm.568.98c0-.611.621-.809,1.109-.45l.2-.348a1.06,1.06,0,1,0,0,1.607l-.2-.348C19.339,54.021,18.723,53.813,18.723,53.213Zm3.573-.98h-.439v.236a.974.974,0,1,0,0,1.489V54.2H22.3Zm1.805,0a.644.644,0,0,0-.814.236v-.236h-.423V54.2h.423V53.089a.45.45,0,0,1,.686-.45l.129-.407Zm2.159-.8h-.423v1.034a.974.974,0,1,0,0,1.489V54.2h.423Zm.407-4.023v.246h.043v-.246h.1v-.043h-.246v.043h.1Zm.354,6.632a.163.163,0,0,0-.016-.086c-.016-.016-.027-.043-.043-.059s-.043-.027-.059-.043c-.027,0-.059-.016-.086-.016a.569.569,0,0,1-.075.016.28.28,0,0,0-.059.043.084.084,0,0,0-.043.059.163.163,0,0,0-.016.086.156.156,0,0,0,.016.075.084.084,0,0,0,.043.059.186.186,0,0,0,.059.043.146.146,0,0,0,.075.016.163.163,0,0,0,.086-.016c.016-.016.043-.027.059-.043s.027-.043.043-.059A.156.156,0,0,0,27.021,54.043Zm.171-6.68h-.075l-.086.188-.086-.187h-.075v.289h.043v-.22L27,47.62h.059l.075-.187v.22h.059Zm.236-4.312a7.416,7.416,0,0,0-11.518-6.171,7.989,7.989,0,0,1,0,12.348A7.416,7.416,0,0,0,27.429,43.05Z" transform="translate(0 -33)"/></svg>