<svg xmlns="http://www.w3.org/2000/svg" width="30.857" height="24" viewBox="0 0 30.857 24"><defs><style>.a{fill:#999;}</style></defs><path class="a" d="M25.184,42.677s.407,1.993.5,2.411H23.893c.177-.477.857-2.33.857-2.33-.011.016.177-.487.284-.8l.15.718Zm5.673-8.105V53.429A2.572,2.572,0,0,1,28.286,56H2.571A2.572,2.572,0,0,1,0,53.429V34.571A2.572,2.572,0,0,1,2.571,32H28.286A2.572,2.572,0,0,1,30.857,34.571ZM8.17,48.029l3.386-8.314H9.279L7.173,45.393l-.23-1.152-.75-3.825a.9.9,0,0,0-.975-.7H1.752l-.038.166a8.5,8.5,0,0,1,2.261.916l1.918,7.232Zm5.057.011,1.35-8.325H12.423l-1.345,8.325h2.148Zm7.495-2.721c.011-.948-.568-1.671-1.805-2.266-.755-.38-1.216-.638-1.216-1.029.011-.354.391-.718,1.237-.718a3.691,3.691,0,0,1,1.6.316l.193.091.295-1.8a5.35,5.35,0,0,0-1.929-.354c-2.127,0-3.621,1.136-3.632,2.754-.016,1.195,1.071,1.859,1.886,2.261.83.407,1.114.675,1.114,1.034-.011.557-.675.814-1.291.814a4.291,4.291,0,0,1-2.02-.445l-.284-.134-.3,1.87a6.573,6.573,0,0,0,2.4.445c2.261.005,3.734-1.114,3.75-2.839Zm7.564,2.721L26.55,39.714H24.884a1.06,1.06,0,0,0-1.125.691l-3.2,7.634h2.261s.37-1.029.45-1.248h2.764c.064.295.257,1.248.257,1.248Z" transform="translate(0 -32)"/></svg>