<svg xmlns="http://www.w3.org/2000/svg" width="26.035" height="26.034" viewBox="0 0 26.035 26.034">
  <path id="FontAwsome_facebook-square_" data-name="FontAwsome (facebook-square)" d="M23.246,32H2.789A2.789,2.789,0,0,0,0,34.789V55.245a2.789,2.789,0,0,0,2.789,2.789h7.976V49.183H7.1V45.017h3.661V41.842c0-3.612,2.15-5.607,5.444-5.607a22.181,22.181,0,0,1,3.227.281v3.545H17.619a2.083,2.083,0,0,0-2.349,2.251v2.705h4l-.639,4.166H15.27v8.851h7.976a2.789,2.789,0,0,0,2.789-2.789V34.789A2.789,2.789,0,0,0,23.246,32Z" transform="translate(0 -32)" fill="#00263f"/>
</svg>
