<svg xmlns="http://www.w3.org/2000/svg" width="26.035" height="26.034" viewBox="0 0 26.035 26.034">
  <path id="FontAwsome_github-square_" data-name="FontAwsome (github-square)" d="M23.246,32H2.789A2.79,2.79,0,0,0,0,34.789V55.245a2.79,2.79,0,0,0,2.789,2.789H23.246a2.79,2.79,0,0,0,2.789-2.789V34.789A2.79,2.79,0,0,0,23.246,32ZM16.115,54.3c-.488.087-.668-.215-.668-.465,0-.314.012-1.918.012-3.214a2.264,2.264,0,0,0-.657-1.784c2.15-.238,4.417-.535,4.417-4.248a2.984,2.984,0,0,0-.994-2.266,3.634,3.634,0,0,0-.1-2.615c-.808-.25-2.656,1.04-2.656,1.04a9.142,9.142,0,0,0-4.835,0s-1.848-1.29-2.656-1.04a3.606,3.606,0,0,0-.1,2.615,2.919,2.919,0,0,0-.907,2.266c0,3.7,2.168,4.01,4.318,4.248a2.106,2.106,0,0,0-.616,1.3,2.039,2.039,0,0,1-2.807-.808,2.025,2.025,0,0,0-1.482-.994c-.941-.012-.064.593-.064.593.628.291,1.069,1.406,1.069,1.406.564,1.726,3.26,1.145,3.26,1.145,0,.808.012,2.121.012,2.359s-.174.552-.668.465a9.641,9.641,0,0,1-6.52-9.2,9.222,9.222,0,0,1,9.415-9.385A9.428,9.428,0,0,1,22.548,45.1,9.552,9.552,0,0,1,16.115,54.3Zm-5.7-3.551c-.11.023-.215-.023-.227-.1s.064-.163.174-.186.215.035.227.11S10.53,50.724,10.414,50.747Zm-.552-.052c0,.076-.087.139-.2.139s-.215-.052-.215-.139.087-.139.2-.139S9.862,50.608,9.862,50.695Zm-.8-.064c-.023.076-.139.11-.238.076s-.186-.11-.163-.186.139-.11.238-.087c.116.035.192.122.163.2Zm-.715-.314c-.052.064-.163.052-.25-.035s-.11-.186-.052-.238.163-.052.25.035S8.4,50.27,8.351,50.317Zm-.529-.529c-.052.035-.151,0-.215-.087s-.064-.186,0-.227.163-.012.215.076A.17.17,0,0,1,7.822,49.788Zm-.378-.564c-.052.052-.139.023-.2-.035-.064-.076-.076-.163-.023-.2s.139-.023.2.035C7.485,49.1,7.5,49.184,7.444,49.224Zm-.389-.43a.109.109,0,0,1-.163.023c-.076-.035-.11-.1-.087-.151a.137.137,0,0,1,.163-.023C7.043,48.684,7.078,48.748,7.055,48.794Z" transform="translate(0 -32)" fill="#00263f"/>
</svg>
