<svg xmlns="http://www.w3.org/2000/svg" xmlns:xlink="http://www.w3.org/1999/xlink" width="179" height="59" viewBox="0 0 179 59">
  <defs>
    <filter id="Rectangle_11" x="0" y="0" width="179" height="59" filterUnits="userSpaceOnUse">
      <feOffset dx="2" dy="3" input="SourceAlpha"/>
      <feGaussianBlur stdDeviation="1.5" result="blur"/>
      <feFlood flood-opacity="0.078"/>
      <feComposite operator="in" in2="blur"/>
      <feComposite in="SourceGraphic"/>
    </filter>
  </defs>
  <g id="Groupe_292" data-name="Groupe 292" transform="translate(-757.5 -7437.5)">
    <g id="Groupe_286" data-name="Groupe 286" transform="translate(748 205)">
      <g transform="matrix(1, 0, 0, 1, 9.5, 7232.5)" filter="url(#Rectangle_11)">
        <rect id="Rectangle_11-2" data-name="Rectangle 11" width="170" height="50" rx="6" transform="translate(2.5 1.5)" fill="#fff"/>
      </g>
      <path id="FontAwsome_google-play_" data-name="FontAwsome (google-play)" d="M42.832,13.692,29.934.76l16.41,9.42ZM26.568,0A2.272,2.272,0,0,0,25.3,2.063V27.852a2.272,2.272,0,0,0,1.268,2.063l15-14.96ZM51.416,13.184l-3.442-1.993L44.135,14.96l3.839,3.769,3.512-1.993A2.344,2.344,0,0,0,51.416,13.184ZM29.934,29.161l16.41-9.42-3.512-3.512Z" transform="translate(-0.3 7244)" fill="#40bbc9"/>
      <text id="Google_Play" data-name="Google Play" transform="translate(114 7271)" fill="#706c68" font-size="20" font-family="Roboto-Regular, Roboto"><tspan x="-52.861" y="0">Google Play</tspan></text>
      <text id="Download_on" data-name="Download on" transform="translate(61 7252)" fill="#706c68" font-size="12" font-family="Roboto-Regular, Roboto"><tspan x="0" y="0">Download on</tspan></text>
    </g>
  </g>
</svg>
