<svg xmlns="http://www.w3.org/2000/svg" width="26.041" height="26.034" viewBox="0 0 26.041 26.034">
  <path id="FontAwsome_instagram_" data-name="FontAwsome (instagram)" d="M12.948,38.167a6.675,6.675,0,1,0,6.675,6.675A6.664,6.664,0,0,0,12.948,38.167Zm0,11.014a4.34,4.34,0,1,1,4.34-4.34A4.347,4.347,0,0,1,12.948,49.182Zm8.505-11.287A1.557,1.557,0,1,1,19.9,36.337,1.553,1.553,0,0,1,21.454,37.894Zm4.421,1.58a7.7,7.7,0,0,0-2.1-5.455,7.756,7.756,0,0,0-5.455-2.1c-2.15-.122-8.592-.122-10.742,0a7.745,7.745,0,0,0-5.455,2.1,7.73,7.73,0,0,0-2.1,5.455c-.122,2.149-.122,8.592,0,10.741a7.7,7.7,0,0,0,2.1,5.455,7.766,7.766,0,0,0,5.455,2.1c2.15.122,8.592.122,10.742,0a7.705,7.705,0,0,0,5.455-2.1,7.755,7.755,0,0,0,2.1-5.455c.122-2.149.122-8.586,0-10.736ZM23.1,52.516a4.393,4.393,0,0,1-2.475,2.475c-1.714.68-5.78.523-7.674.523s-5.966.151-7.674-.523A4.393,4.393,0,0,1,2.8,52.516c-.68-1.714-.523-5.78-.523-7.674s-.151-5.966.523-7.674a4.394,4.394,0,0,1,2.475-2.475c1.714-.68,5.78-.523,7.674-.523s5.966-.151,7.674.523A4.393,4.393,0,0,1,23.1,37.168c.68,1.714.523,5.78.523,7.674S23.777,50.808,23.1,52.516Z" transform="translate(0.075 -31.825)" fill="#00263f"/>
</svg>
