<svg xmlns="http://www.w3.org/2000/svg" width="26.035" height="26.034" viewBox="0 0 26.035 26.034">
  <path id="FontAwsome_linkedin_" data-name="FontAwsome (linkedin)" d="M24.176,32H1.854A1.868,1.868,0,0,0,0,33.877v22.28a1.868,1.868,0,0,0,1.854,1.877H24.176a1.873,1.873,0,0,0,1.86-1.877V33.877A1.873,1.873,0,0,0,24.176,32ZM7.869,54.315H4.01V41.891H7.875V54.315ZM5.939,40.194a2.237,2.237,0,1,1,2.237-2.237A2.238,2.238,0,0,1,5.939,40.194ZM22.333,54.315H18.475V48.271c0-1.441-.029-3.295-2-3.295-2.011,0-2.319,1.569-2.319,3.19v6.148H10.292V41.891h3.7v1.7h.052a4.064,4.064,0,0,1,3.655-2c3.905,0,4.632,2.574,4.632,5.922Z" transform="translate(0 -32)" fill="#00263f"/>
</svg>
