<?xml version="1.0" encoding="utf-8"?>
<!-- Generator: Adobe Illustrator 25.2.1, SVG Export Plug-In . SVG Version: 6.00 Build 0)  -->
<svg version="1.1" id="Calque_1" xmlns="http://www.w3.org/2000/svg" xmlns:xlink="http://www.w3.org/1999/xlink" x="0px" y="0px"
	 viewBox="0 0 26 26" style="enable-background:new 0 0 26 26;" xml:space="preserve">
<style type="text/css">
	.st0{fill:#00263F;}
</style>
<g id="Calque_2_1_">
	<g id="Layer_1">
		<path class="st0" d="M10.8,15c0-0.9-0.7-1.7-1.7-1.7c-0.9,0-1.7,0.7-1.7,1.7c0,0.9,0.7,1.7,1.7,1.7C10.1,16.7,10.8,16,10.8,15z"/>
		<path class="st0" d="M25.3,0H0.7C0.3,0,0,0.3,0,0.7v24.6C0,25.7,0.3,26,0.7,26c0,0,0,0,0,0h24.6c0.4,0,0.7-0.3,0.7-0.7l0,0V0.7
			C26,0.3,25.7,0,25.3,0C25.3,0,25.3,0,25.3,0z M22.6,15.8c0,0.2,0,0.4,0,0.6c0,3.7-4.4,6.7-9.8,6.7S3,20.1,3,16.4
			c0-0.3,0-0.5,0.1-0.8C2.2,15,1.7,13.9,2,12.7c0.2-0.9,0.9-1.6,1.8-1.8c0.9-0.2,1.8,0,2.4,0.6c1.6-1,3.8-1.6,6.1-1.7l1.3-5.8
			c0.1-0.6,0.7-0.9,1.3-0.8l3,0.6c0.5-0.8,1.5-0.9,2.3-0.4c0.5,0.3,0.7,0.8,0.7,1.4c0,0.9-0.7,1.7-1.7,1.7c-0.9,0-1.6-0.7-1.6-1.5
			l-2.8-0.6l-1.2,5.5c2.4,0.1,4.6,0.8,6.2,1.9c0.6-0.6,1.4-0.9,2.4-0.8c1.1,0.2,1.9,1.1,2.1,2.1C24.3,14.2,23.6,15.3,22.6,15.8z"/>
		<path class="st0" d="M17.1,18.9c-0.1,0-0.2,0-0.3,0.1c-2.4,1.3-5.2,1.3-7.6,0c-0.2-0.1-0.5-0.1-0.7,0.2c0,0.1-0.1,0.1-0.1,0.2
			c0,0.2,0.1,0.4,0.3,0.5c2.7,1.4,5.8,1.4,8.5,0c0.3-0.1,0.4-0.5,0.2-0.7C17.4,19,17.3,18.9,17.1,18.9z"/>
		<circle class="st0" cx="16.9" cy="15" r="1.7"/>
	</g>
</g>
</svg>
