<svg xmlns="http://www.w3.org/2000/svg" width="26.035" height="26.034" viewBox="0 0 26.035 26.034">
  <path id="FontAwsome_twitter-square_" data-name="FontAwsome (twitter-square)" d="M23.246,32H2.789A2.79,2.79,0,0,0,0,34.789V55.245a2.79,2.79,0,0,0,2.789,2.789H23.246a2.79,2.79,0,0,0,2.789-2.789V34.789A2.79,2.79,0,0,0,23.246,32ZM20.4,41.228c.012.163.012.331.012.494A10.77,10.77,0,0,1,9.571,52.566a10.8,10.8,0,0,1-5.852-1.708,8.03,8.03,0,0,0,.918.046,7.642,7.642,0,0,0,4.731-1.627,3.816,3.816,0,0,1-3.562-2.644,4.108,4.108,0,0,0,1.72-.07A3.812,3.812,0,0,1,4.475,42.82v-.046a3.809,3.809,0,0,0,1.72.482,3.8,3.8,0,0,1-1.7-3.173,3.764,3.764,0,0,1,.517-1.924,10.822,10.822,0,0,0,7.857,3.986,3.82,3.82,0,0,1,6.5-3.481,7.469,7.469,0,0,0,2.418-.918,3.8,3.8,0,0,1-1.674,2.1,7.585,7.585,0,0,0,2.2-.593A8.023,8.023,0,0,1,20.4,41.228Z" transform="translate(0 -32)" fill="#00263f"/>
</svg>
