<svg xmlns="http://www.w3.org/2000/svg" width="37.028" height="26.034" viewBox="0 0 37.028 26.034">
  <path id="FontAwsome_youtube_" data-name="FontAwsome (youtube)" d="M51.187,68.073a4.653,4.653,0,0,0-3.274-3.295C45.026,64,33.447,64,33.447,64s-11.579,0-14.467.779a4.653,4.653,0,0,0-3.274,3.295c-.774,2.906-.774,8.97-.774,8.97s0,6.064.774,8.97a4.583,4.583,0,0,0,3.274,3.242c2.888.779,14.467.779,14.467.779s11.579,0,14.467-.779a4.583,4.583,0,0,0,3.274-3.242c.774-2.906.774-8.97.774-8.97S51.961,70.98,51.187,68.073ZM29.66,82.549V71.538l9.678,5.506Z" transform="translate(-14.933 -64)" fill="#00263f"/>
</svg>
